<svg xmlns="http://www.w3.org/2000/svg" width="256" height="37" viewBox="0 0 256 37" fill="none"><path d="M1 18.1945C1 15.1397 1.0008 12.9095 1.14608 11.1511C1.29037 9.40478 1.57209 8.21259 2.08475 7.21767C3.0392 5.36534 4.5633 3.85726 6.44046 2.91147C7.45045 2.40259 8.66026 2.12338 10.4288 1.9805C12.2087 1.8367 14.4657 1.83594 17.5543 1.83594H238.446C241.534 1.83594 243.791 1.8367 245.571 1.9805C247.34 2.12338 248.55 2.40259 249.56 2.91147C251.437 3.85726 252.961 5.36534 253.915 7.21768C254.428 8.21259 254.71 9.40477 254.854 11.1511C254.999 12.9095 255 15.1397 255 18.1945V19.641C255 22.6957 254.999 24.9259 254.854 26.6843C254.71 28.4307 254.428 29.6229 253.915 30.6178C252.961 32.4701 251.437 33.9782 249.56 34.924C248.55 35.4329 247.34 35.7121 245.571 35.8549C243.791 35.9987 241.534 35.9995 238.446 35.9995H17.5543C14.4657 35.9995 12.2087 35.9987 10.4288 35.8549C8.66026 35.7121 7.45045 35.4329 6.44046 34.924C4.5633 33.9782 3.0392 32.4701 2.08475 30.6178C1.57209 29.6229 1.29037 28.4307 1.14608 26.6843C1.0008 24.9259 1 22.6957 1 19.641V18.1945Z" stroke="black" stroke-width="2"></path><path d="M42.2 18.0846H47.3V18.8188C47.3 19.8324 47.0675 20.7471 46.6025 21.5629C46.1425 22.3787 45.5025 23.0165 44.6825 23.4763C43.8625 23.9361 42.9425 24.166 41.9225 24.166C41.1425 24.166 40.41 24.0276 39.725 23.7507C39.04 23.4689 38.4525 23.0882 37.9625 22.6086C37.4725 22.129 37.085 21.5555 36.8 20.888C36.52 20.2156 36.38 19.4987 36.38 18.7373C36.38 17.9758 36.5225 17.2614 36.8075 16.5939C37.0925 15.9215 37.4825 15.3455 37.9775 14.8659C38.4725 14.3863 39.065 14.0081 39.755 13.7312C40.445 13.4543 41.1825 13.3159 41.9675 13.3159C42.8875 13.3159 43.735 13.4988 44.51 13.8647C45.29 14.2306 45.9175 14.7324 46.3925 15.3702L44.795 16.631C44.475 16.2206 44.0725 15.9017 43.5875 15.6743C43.1075 15.4419 42.5825 15.3257 42.0125 15.3257C41.0275 15.3257 40.205 15.6496 39.545 16.2973C38.885 16.945 38.555 17.7583 38.555 18.7373C38.555 19.7162 38.8825 20.532 39.5375 21.1847C40.1925 21.8324 41.0125 22.1562 41.9975 22.1562C42.7575 22.1562 43.42 21.9535 43.985 21.5481C44.55 21.1377 44.9125 20.6062 45.0725 19.9535H42.2V18.0846Z" fill="black"></path><path d="M55.9924 20.1241C55.9924 20.3713 55.9774 20.6037 55.9474 20.8213H49.8799C50.0199 21.3107 50.2874 21.6989 50.6824 21.9856C51.0774 22.2724 51.5574 22.4158 52.1224 22.4158C52.5774 22.4158 52.9949 22.3268 53.3749 22.1488C53.7549 21.9658 54.0549 21.7359 54.2749 21.4591L55.6099 22.616C55.1949 23.1055 54.6799 23.4862 54.0649 23.7581C53.4549 24.0301 52.7874 24.166 52.0624 24.166C51.2424 24.166 50.4999 23.988 49.8349 23.6321C49.1699 23.2761 48.6499 22.7866 48.2749 22.1636C47.8999 21.5357 47.7124 20.841 47.7124 20.0796C47.7124 19.3281 47.8924 18.6458 48.2524 18.0327C48.6174 17.4147 49.1174 16.9301 49.7524 16.5791C50.3924 16.2281 51.0999 16.0525 51.8749 16.0525C53.0499 16.0525 54.0299 16.4407 54.8149 17.2169C55.5999 17.9882 55.9924 18.9573 55.9924 20.1241ZM53.1274 18.2181C52.7674 17.9264 52.3449 17.7805 51.8599 17.7805C51.3749 17.7805 50.9524 17.9264 50.5924 18.2181C50.2324 18.5049 49.9899 18.8905 49.8649 19.3751H53.8624C53.7374 18.8905 53.4924 18.5049 53.1274 18.2181Z" fill="black"></path><path d="M61.2797 18.0401H59.1722V21.2588C59.1722 21.9213 59.5322 22.2526 60.2522 22.2526C60.5572 22.2526 60.8997 22.1661 61.2797 21.993V23.8323C60.8647 24.0548 60.3772 24.166 59.8172 24.166C58.9422 24.166 58.2822 23.9361 57.8372 23.4763C57.3972 23.0116 57.1772 22.3787 57.1772 21.5777V18.0401H55.9322V16.2379H57.1772V14.2726H59.1722V16.2379H61.2797V18.0401Z" fill="black"></path><path d="M68.6144 24.166C67.5094 24.166 66.6244 23.8694 65.9594 23.2761C65.2944 22.6778 64.9619 21.8843 64.9619 20.8954V16.2379H66.9569V20.621C66.9569 21.1154 67.1069 21.511 67.4069 21.8076C67.7119 22.1043 68.1144 22.2526 68.6144 22.2526C69.1144 22.2526 69.5144 22.1043 69.8144 21.8076C70.1194 21.511 70.2719 21.1154 70.2719 20.621V16.2379H72.2669V20.8954C72.2669 21.8793 71.9319 22.6704 71.2619 23.2687C70.5969 23.8669 69.7144 24.166 68.6144 24.166Z" fill="black"></path><path d="M78.0118 16.0525C78.7268 16.0525 79.3743 16.2305 79.9543 16.5865C80.5393 16.9376 80.9968 17.4246 81.3268 18.0475C81.6568 18.6656 81.8218 19.3528 81.8218 20.1093C81.8218 20.8658 81.6568 21.5555 81.3268 22.1784C80.9968 22.7965 80.5393 23.2835 79.9543 23.6395C79.3743 23.9905 78.7268 24.166 78.0118 24.166C76.9818 24.166 76.1318 23.7952 75.4618 23.0536V26.8656H73.4668V16.2379H75.4618V17.1576C76.1268 16.4209 76.9768 16.0525 78.0118 16.0525ZM77.6143 22.2526C78.2343 22.2526 78.7468 22.0499 79.1518 21.6445C79.5618 21.2341 79.7668 20.7224 79.7668 20.1093C79.7668 19.4962 79.5618 18.9869 79.1518 18.5815C78.7468 18.1711 78.2343 17.966 77.6143 17.966C76.9993 17.966 76.4868 18.1711 76.0768 18.5815C75.6668 18.9919 75.4618 19.5011 75.4618 20.1093C75.4618 20.7174 75.6668 21.2267 76.0768 21.6371C76.4868 22.0474 76.9993 22.2526 77.6143 22.2526Z" fill="black"></path><path d="M88.6391 13.0415H90.6341V23.9806H88.6391V23.0536C87.9541 23.7952 87.1041 24.166 86.0891 24.166C84.9991 24.166 84.0891 23.7779 83.3591 23.0017C82.6291 22.2254 82.2641 21.2613 82.2641 20.1093C82.2641 18.9573 82.6291 17.9932 83.3591 17.2169C84.0891 16.4407 84.9991 16.0525 86.0891 16.0525C87.1091 16.0525 87.9591 16.4209 88.6391 17.1576V13.0415ZM86.4716 22.2526C87.0916 22.2526 87.6066 22.0474 88.0166 21.6371C88.4316 21.2267 88.6391 20.7174 88.6391 20.1093C88.6391 19.5011 88.4316 18.9919 88.0166 18.5815C87.6066 18.1711 87.0916 17.966 86.4716 17.966C85.8566 17.966 85.3441 18.1711 84.9341 18.5815C84.5241 18.9919 84.3191 19.5011 84.3191 20.1093C84.3191 20.7174 84.5241 21.2267 84.9341 21.6371C85.3441 22.0474 85.8566 22.2526 86.4716 22.2526Z" fill="black"></path><path d="M97.879 16.2379H99.874V23.9806H97.879V23.0536C97.194 23.7952 96.344 24.166 95.329 24.166C94.239 24.166 93.329 23.7779 92.599 23.0017C91.869 22.2254 91.504 21.2613 91.504 20.1093C91.504 18.9573 91.869 17.9932 92.599 17.2169C93.329 16.4407 94.239 16.0525 95.329 16.0525C96.349 16.0525 97.199 16.4209 97.879 17.1576V16.2379ZM95.7115 22.2526C96.3315 22.2526 96.8465 22.0474 97.2565 21.6371C97.6715 21.2267 97.879 20.7174 97.879 20.1093C97.879 19.5011 97.6715 18.9919 97.2565 18.5815C96.8465 18.1711 96.3315 17.966 95.7115 17.966C95.0965 17.966 94.584 18.1711 94.174 18.5815C93.764 18.9919 93.559 19.5011 93.559 20.1093C93.559 20.7174 93.764 21.2267 94.174 21.6371C94.584 22.0474 95.0965 22.2526 95.7115 22.2526Z" fill="black"></path><path d="M106.009 18.0401H103.901V21.2588C103.901 21.9213 104.261 22.2526 104.981 22.2526C105.286 22.2526 105.629 22.1661 106.009 21.993V23.8323C105.594 24.0548 105.106 24.166 104.546 24.166C103.671 24.166 103.011 23.9361 102.566 23.4763C102.126 23.0116 101.906 22.3787 101.906 21.5777V18.0401H100.661V16.2379H101.906V14.2726H103.901V16.2379H106.009V18.0401Z" fill="black"></path><path d="M114.461 20.1241C114.461 20.3713 114.446 20.6037 114.416 20.8213H108.349C108.489 21.3107 108.756 21.6989 109.151 21.9856C109.546 22.2724 110.026 22.4158 110.591 22.4158C111.046 22.4158 111.464 22.3268 111.844 22.1488C112.224 21.9658 112.524 21.7359 112.744 21.4591L114.079 22.616C113.664 23.1055 113.149 23.4862 112.534 23.7581C111.924 24.0301 111.256 24.166 110.531 24.166C109.711 24.166 108.969 23.988 108.304 23.6321C107.639 23.2761 107.119 22.7866 106.744 22.1636C106.369 21.5357 106.181 20.841 106.181 20.0796C106.181 19.3281 106.361 18.6458 106.721 18.0327C107.086 17.4147 107.586 16.9301 108.221 16.5791C108.861 16.2281 109.569 16.0525 110.344 16.0525C111.519 16.0525 112.499 16.4407 113.284 17.2169C114.069 17.9882 114.461 18.9573 114.461 20.1241ZM111.596 18.2181C111.236 17.9264 110.814 17.7805 110.329 17.7805C109.844 17.7805 109.421 17.9264 109.061 18.2181C108.701 18.5049 108.459 18.8905 108.334 19.3751H112.331C112.206 18.8905 111.961 18.5049 111.596 18.2181Z" fill="black"></path><path d="M117.971 24.166C116.701 24.166 115.601 23.7705 114.671 22.9794L115.639 21.6741C116.304 22.2477 117.066 22.5344 117.926 22.5344C118.336 22.5344 118.669 22.4702 118.924 22.3416C119.184 22.2131 119.314 22.0351 119.314 21.8076C119.314 21.684 119.276 21.5753 119.201 21.4813C119.131 21.3874 119.016 21.3058 118.856 21.2366C118.696 21.1674 118.541 21.1105 118.391 21.066C118.246 21.0215 118.041 20.9696 117.776 20.9103C117.596 20.8707 117.454 20.8386 117.349 20.8138C117.244 20.7891 117.099 20.752 116.914 20.7026C116.734 20.6482 116.586 20.5988 116.471 20.5543C116.361 20.5098 116.229 20.4504 116.074 20.3763C115.919 20.2972 115.791 20.2181 115.691 20.139C115.596 20.0598 115.494 19.9634 115.384 19.8497C115.279 19.736 115.194 19.6149 115.129 19.4863C115.069 19.3578 115.019 19.2094 114.979 19.0413C114.939 18.8732 114.919 18.6928 114.919 18.4999C114.919 17.9709 115.066 17.5185 115.361 17.1427C115.656 16.767 116.039 16.4926 116.509 16.3195C116.984 16.1415 117.519 16.0525 118.114 16.0525C119.269 16.0525 120.281 16.3912 121.151 17.0686L120.184 18.3887C119.544 17.914 118.869 17.6767 118.159 17.6767C117.799 17.6767 117.504 17.7336 117.274 17.8473C117.044 17.961 116.929 18.1266 116.929 18.3442C116.929 18.4678 116.964 18.5766 117.034 18.6705C117.104 18.7595 117.219 18.8386 117.379 18.9078C117.539 18.9721 117.694 19.0265 117.844 19.071C117.994 19.1105 118.201 19.1575 118.466 19.2119C118.696 19.2613 118.881 19.3034 119.021 19.338C119.161 19.3726 119.344 19.427 119.569 19.5011C119.794 19.5753 119.976 19.6495 120.116 19.7236C120.261 19.7978 120.416 19.8992 120.581 20.0277C120.751 20.1513 120.884 20.2848 120.979 20.4282C121.074 20.5716 121.154 20.7471 121.219 20.9548C121.289 21.1624 121.324 21.3874 121.324 21.6296C121.324 22.1587 121.174 22.6185 120.874 23.0091C120.574 23.3997 120.174 23.6914 119.674 23.8842C119.174 24.0721 118.606 24.166 117.971 24.166Z" fill="black"></path><path d="M131.726 23.0017C130.921 23.7779 129.921 24.166 128.726 24.166C127.531 24.166 126.528 23.7779 125.718 23.0017C124.913 22.2254 124.511 21.2613 124.511 20.1093C124.511 18.9573 124.913 17.9932 125.718 17.2169C126.528 16.4407 127.531 16.0525 128.726 16.0525C129.921 16.0525 130.921 16.4407 131.726 17.2169C132.531 17.9932 132.933 18.9573 132.933 20.1093C132.933 21.2613 132.531 22.2254 131.726 23.0017ZM128.726 22.2526C129.346 22.2526 129.858 22.0499 130.263 21.6445C130.668 21.2341 130.871 20.7224 130.871 20.1093C130.871 19.4962 130.668 18.9869 130.263 18.5815C129.858 18.1711 129.346 17.966 128.726 17.966C128.111 17.966 127.598 18.1711 127.188 18.5815C126.778 18.9919 126.573 19.5011 126.573 20.1093C126.573 20.7174 126.778 21.2267 127.188 21.6371C127.598 22.0474 128.111 22.2526 128.726 22.2526Z" fill="black"></path><path d="M138.266 16.0525C139.191 16.0525 139.931 16.3269 140.486 16.8758C141.046 17.4196 141.326 18.1464 141.326 19.0562V23.9806H139.323V19.694C139.323 19.1699 139.166 18.7521 138.851 18.4406C138.541 18.1242 138.126 17.966 137.606 17.966C137.061 17.966 136.618 18.1291 136.278 18.4554C135.943 18.7768 135.776 19.202 135.776 19.7311V23.9806H133.781V16.2379H135.776V17.0982C136.406 16.4011 137.236 16.0525 138.266 16.0525Z" fill="black"></path><path d="M152.17 23.0017C151.365 23.7779 150.365 24.166 149.17 24.166C147.975 24.166 146.973 23.7779 146.163 23.0017C145.358 22.2254 144.955 21.2613 144.955 20.1093C144.955 18.9573 145.358 17.9932 146.163 17.2169C146.973 16.4407 147.975 16.0525 149.17 16.0525C150.365 16.0525 151.365 16.4407 152.17 17.2169C152.975 17.9932 153.378 18.9573 153.378 20.1093C153.378 21.2613 152.975 22.2254 152.17 23.0017ZM149.17 22.2526C149.79 22.2526 150.303 22.0499 150.708 21.6445C151.113 21.2341 151.315 20.7224 151.315 20.1093C151.315 19.4962 151.113 18.9869 150.708 18.5815C150.303 18.1711 149.79 17.966 149.17 17.966C148.555 17.966 148.043 18.1711 147.633 18.5815C147.223 18.9919 147.018 19.5011 147.018 20.1093C147.018 20.7174 147.223 21.2267 147.633 21.6371C148.043 22.0474 148.555 22.2526 149.17 22.2526Z" fill="black"></path><path d="M157.758 24.166C156.653 24.166 155.768 23.8694 155.103 23.2761C154.438 22.6778 154.105 21.8843 154.105 20.8954V16.2379H156.1V20.621C156.1 21.1154 156.25 21.511 156.55 21.8076C156.855 22.1043 157.258 22.2526 157.758 22.2526C158.258 22.2526 158.658 22.1043 158.958 21.8076C159.263 21.511 159.415 21.1154 159.415 20.621V16.2379H161.41V20.8954C161.41 21.8793 161.075 22.6704 160.405 23.2687C159.74 23.8669 158.858 24.166 157.758 24.166Z" fill="black"></path><path d="M166.863 16.1119H167.2V18.1514H166.863C166.153 18.1514 165.598 18.3442 165.198 18.7298C164.803 19.1155 164.605 19.6396 164.605 20.3021V23.9806H162.61V16.2379H164.605V17.2392C165.205 16.4876 165.958 16.1119 166.863 16.1119Z" fill="black"></path><path d="M172.585 14.7398C172.345 14.9772 172.047 15.0958 171.692 15.0958C171.337 15.0958 171.037 14.9772 170.792 14.7398C170.552 14.5025 170.432 14.2108 170.432 13.8647C170.432 13.5186 170.552 13.2269 170.792 12.9896C171.037 12.7523 171.337 12.6336 171.692 12.6336C172.047 12.6336 172.345 12.7523 172.585 12.9896C172.83 13.2269 172.952 13.5186 172.952 13.8647C172.952 14.2108 172.83 14.5025 172.585 14.7398ZM170.695 23.9806V16.2379H172.69V23.9806H170.695Z" fill="black"></path><path d="M178.495 16.0525C179.42 16.0525 180.16 16.3269 180.715 16.8758C181.275 17.4196 181.555 18.1464 181.555 19.0562V23.9806H179.552V19.694C179.552 19.1699 179.395 18.7521 179.08 18.4406C178.77 18.1242 178.355 17.966 177.835 17.966C177.29 17.966 176.847 18.1291 176.507 18.4554C176.172 18.7768 176.005 19.202 176.005 19.7311V23.9806H174.01V16.2379H176.005V17.0982C176.635 16.4011 177.465 16.0525 178.495 16.0525Z" fill="black"></path><path d="M185.439 24.166C184.169 24.166 183.069 23.7705 182.139 22.9794L183.107 21.6741C183.772 22.2477 184.535 22.5344 185.395 22.5344C185.805 22.5344 186.137 22.4702 186.392 22.3416C186.652 22.2131 186.782 22.0351 186.782 21.8076C186.782 21.684 186.744 21.5753 186.669 21.4813C186.599 21.3874 186.484 21.3058 186.324 21.2366C186.164 21.1674 186.009 21.1105 185.859 21.066C185.714 21.0215 185.509 20.9696 185.244 20.9103C185.064 20.8707 184.922 20.8386 184.817 20.8138C184.712 20.7891 184.567 20.752 184.382 20.7026C184.202 20.6482 184.055 20.5988 183.939 20.5543C183.829 20.5098 183.697 20.4504 183.542 20.3763C183.387 20.2972 183.26 20.2181 183.16 20.139C183.064 20.0598 182.962 19.9634 182.852 19.8497C182.747 19.736 182.662 19.6149 182.597 19.4863C182.537 19.3578 182.487 19.2094 182.447 19.0413C182.407 18.8732 182.387 18.6928 182.387 18.4999C182.387 17.9709 182.535 17.5185 182.829 17.1427C183.124 16.767 183.507 16.4926 183.977 16.3195C184.452 16.1415 184.987 16.0525 185.582 16.0525C186.737 16.0525 187.75 16.3912 188.62 17.0686L187.652 18.3887C187.012 17.914 186.337 17.6767 185.627 17.6767C185.267 17.6767 184.972 17.7336 184.742 17.8473C184.512 17.961 184.397 18.1266 184.397 18.3442C184.397 18.4678 184.432 18.5766 184.502 18.6705C184.572 18.7595 184.687 18.8386 184.847 18.9078C185.007 18.9721 185.162 19.0265 185.312 19.071C185.462 19.1105 185.669 19.1575 185.934 19.2119C186.164 19.2613 186.35 19.3034 186.49 19.338C186.63 19.3726 186.812 19.427 187.037 19.5011C187.262 19.5753 187.445 19.6495 187.585 19.7236C187.73 19.7978 187.885 19.8992 188.049 20.0277C188.219 20.1513 188.352 20.2848 188.447 20.4282C188.542 20.5716 188.622 20.7471 188.687 20.9548C188.757 21.1624 188.792 21.3874 188.792 21.6296C188.792 22.1587 188.642 22.6185 188.342 23.0091C188.042 23.3997 187.642 23.6914 187.142 23.8842C186.642 24.0721 186.074 24.166 185.439 24.166Z" fill="black"></path><path d="M194.222 18.0401H192.114V21.2588C192.114 21.9213 192.474 22.2526 193.194 22.2526C193.499 22.2526 193.842 22.1661 194.222 21.993V23.8323C193.807 24.0548 193.319 24.166 192.759 24.166C191.884 24.166 191.224 23.9361 190.779 23.4763C190.339 23.0116 190.119 22.3787 190.119 21.5777V18.0401H188.874V16.2379H190.119V14.2726H192.114V16.2379H194.222V18.0401Z" fill="black"></path><path d="M200.807 16.2379H202.802V23.9806H200.807V23.0536C200.122 23.7952 199.272 24.166 198.257 24.166C197.167 24.166 196.257 23.7779 195.527 23.0017C194.797 22.2254 194.432 21.2613 194.432 20.1093C194.432 18.9573 194.797 17.9932 195.527 17.2169C196.257 16.4407 197.167 16.0525 198.257 16.0525C199.277 16.0525 200.127 16.4209 200.807 17.1576V16.2379ZM198.639 22.2526C199.259 22.2526 199.774 22.0474 200.184 21.6371C200.599 21.2267 200.807 20.7174 200.807 20.1093C200.807 19.5011 200.599 18.9919 200.184 18.5815C199.774 18.1711 199.259 17.966 198.639 17.966C198.024 17.966 197.512 18.1711 197.102 18.5815C196.692 18.9919 196.487 19.5011 196.487 20.1093C196.487 20.7174 196.692 21.2267 197.102 21.6371C197.512 22.0474 198.024 22.2526 198.639 22.2526Z" fill="black"></path><path d="M209.094 23.9806C209.874 23.9806 210.522 24.1809 211.037 24.5813C211.557 24.9868 211.882 25.5455 212.012 26.2574L209.949 26.8063C209.919 26.5244 209.792 26.2995 209.567 26.1314C209.342 25.9633 209.054 25.8792 208.704 25.8792H206.139C205.409 25.8792 204.822 25.6889 204.377 25.3082C203.937 24.9274 203.717 24.4281 203.717 23.81C203.717 23.4145 203.812 23.0412 204.002 22.6902C204.197 22.3391 204.454 22.0647 204.774 21.867C204.079 21.2242 203.732 20.4208 203.732 19.4566C203.732 18.4826 204.079 17.6718 204.774 17.0241C205.474 16.3764 206.349 16.0525 207.399 16.0525C208.004 16.0525 208.574 16.1737 209.109 16.4159C209.224 15.9957 209.459 15.6669 209.814 15.4296C210.174 15.1873 210.609 15.0662 211.119 15.0662H211.764V16.8906H211.209C211.009 16.8906 210.834 16.94 210.684 17.0389C210.539 17.1378 210.449 17.2738 210.414 17.4468C210.864 18.0253 211.089 18.6952 211.089 19.4566C211.089 20.4257 210.737 21.2341 210.032 21.8818C209.327 22.5295 208.449 22.8533 207.399 22.8533C206.969 22.8533 206.539 22.7891 206.109 22.6605C205.844 22.8187 205.712 23.0412 205.712 23.328C205.712 23.5159 205.789 23.6716 205.944 23.7952C206.099 23.9188 206.299 23.9806 206.544 23.9806H209.094ZM207.399 17.9215C206.929 17.9215 206.539 18.0673 206.229 18.359C205.924 18.6507 205.772 19.0166 205.772 19.4566C205.772 19.8967 205.924 20.2626 206.229 20.5543C206.539 20.846 206.929 20.9918 207.399 20.9918C207.864 20.9918 208.252 20.846 208.562 20.5543C208.872 20.2626 209.027 19.8967 209.027 19.4566C209.027 19.0166 208.872 18.6507 208.562 18.359C208.252 18.0673 207.864 17.9215 207.399 17.9215Z" fill="black"></path><path d="M216.451 16.1119H216.789V18.1514H216.451C215.741 18.1514 215.186 18.3442 214.786 18.7298C214.391 19.1155 214.194 19.6396 214.194 20.3021V23.9806H212.199V16.2379H214.194V17.2392C214.794 16.4876 215.546 16.1119 216.451 16.1119Z" fill="black"></path><path d="M223.111 16.2379H225.106V23.9806H223.111V23.0536C222.426 23.7952 221.576 24.166 220.561 24.166C219.471 24.166 218.561 23.7779 217.831 23.0017C217.101 22.2254 216.736 21.2613 216.736 20.1093C216.736 18.9573 217.101 17.9932 217.831 17.2169C218.561 16.4407 219.471 16.0525 220.561 16.0525C221.581 16.0525 222.431 16.4209 223.111 17.1576V16.2379ZM220.944 22.2526C221.564 22.2526 222.079 22.0474 222.489 21.6371C222.904 21.2267 223.111 20.7174 223.111 20.1093C223.111 19.5011 222.904 18.9919 222.489 18.5815C222.079 18.1711 221.564 17.966 220.944 17.966C220.329 17.966 219.816 18.1711 219.406 18.5815C218.996 18.9919 218.791 19.5011 218.791 20.1093C218.791 20.7174 218.996 21.2267 219.406 21.6371C219.816 22.0474 220.329 22.2526 220.944 22.2526Z" fill="black"></path><path d="M235.861 16.0525C236.746 16.0525 237.454 16.3146 237.984 16.8387C238.519 17.3628 238.786 18.0624 238.786 18.9375V23.9806H236.784V19.5308C236.784 19.0562 236.644 18.6779 236.364 18.3961C236.089 18.1093 235.719 17.966 235.254 17.966C234.764 17.966 234.366 18.1118 234.061 18.4035C233.756 18.6952 233.604 19.0809 233.604 19.5605V23.9806H231.609V19.5308C231.609 19.0611 231.466 18.6829 231.181 18.3961C230.901 18.1093 230.526 17.966 230.056 17.966C229.571 17.966 229.176 18.1143 228.871 18.4109C228.566 18.7026 228.414 19.0858 228.414 19.5605V23.9806H226.419V16.2379H228.414V17.0389C229.004 16.3813 229.776 16.0525 230.731 16.0525C231.276 16.0525 231.759 16.1638 232.179 16.3863C232.604 16.6038 232.941 16.9128 233.191 17.3133C233.836 16.4728 234.726 16.0525 235.861 16.0525Z" fill="black"></path><path d="M29.2571 18.641C29.2571 24.2333 24.6725 28.7668 19.0171 28.7668C13.3617 28.7668 8.77714 24.2333 8.77714 18.641C8.77714 13.0487 13.3617 8.51519 19.0171 8.51519C24.6725 8.51519 29.2571 13.0487 29.2571 18.641Z" fill="#282B2C"></path><path d="M19.1731 13.1179C17.6139 13.1179 17.4184 13.1245 16.8061 13.1526C16.195 13.1806 15.7777 13.2781 15.4125 13.4206C15.035 13.568 14.7149 13.7652 14.3957 14.0858C14.0765 14.4065 13.8802 14.7281 13.7335 15.1074C13.5916 15.4742 13.4946 15.8934 13.4667 16.5073C13.4387 17.1225 13.4321 17.3189 13.4321 18.8852C13.4321 20.4515 13.4387 20.6479 13.4667 21.263C13.4946 21.8769 13.5916 22.2961 13.7335 22.663C13.8802 23.0422 14.0766 23.3638 14.3957 23.6845C14.7149 24.0051 15.035 24.2023 15.4125 24.3497C15.7777 24.4923 16.195 24.5897 16.8061 24.6178C17.4184 24.6458 17.6139 24.6525 19.1731 24.6525C20.7322 24.6525 20.9277 24.6458 21.54 24.6178C22.1511 24.5898 22.5684 24.4923 22.9336 24.3497C23.3111 24.2023 23.6312 24.0051 23.9504 23.6845C24.2696 23.3638 24.4659 23.0422 24.6126 22.663C24.7545 22.2961 24.8515 21.8769 24.8794 21.263C24.9073 20.6479 24.914 20.4515 24.914 18.8852C24.914 17.3189 24.9073 17.1225 24.8794 16.5073C24.8515 15.8934 24.7545 15.4742 24.6126 15.1074C24.4659 14.7281 24.2696 14.4065 23.9504 14.0858C23.6312 13.7652 23.3111 13.568 22.9336 13.4206C22.5684 13.2781 22.1511 13.1806 21.54 13.1526C20.9277 13.1245 20.7322 13.1179 19.1731 13.1179ZM19.1731 14.157C20.7059 14.157 20.8875 14.1629 21.4929 14.1906C22.0526 14.2163 22.3566 14.3102 22.5589 14.3892C22.8269 14.4939 23.0181 14.6188 23.219 14.8206C23.4199 15.0224 23.5443 15.2146 23.6484 15.4838C23.727 15.687 23.8206 15.9924 23.8461 16.5547C23.8737 17.1628 23.8796 17.3452 23.8796 18.8852C23.8796 20.4251 23.8737 20.6075 23.8461 21.2156C23.8206 21.778 23.727 22.0833 23.6484 22.2865C23.5443 22.5558 23.4199 22.7479 23.219 22.9497C23.0181 23.1515 22.8268 23.2765 22.5589 23.3811C22.3566 23.4601 22.0526 23.554 21.4929 23.5797C20.8876 23.6074 20.706 23.6133 19.173 23.6133C17.6401 23.6133 17.4585 23.6074 16.8532 23.5797C16.2935 23.554 15.9895 23.4601 15.7872 23.3811C15.5192 23.2765 15.328 23.1515 15.1271 22.9497C14.9262 22.7479 14.8018 22.5558 14.6977 22.2866C14.6191 22.0833 14.5255 21.7779 14.5 21.2156C14.4724 20.6075 14.4665 20.4251 14.4665 18.8852C14.4665 17.3452 14.4724 17.1628 14.5 16.5547C14.5255 15.9924 14.6191 15.687 14.6977 15.4838C14.8018 15.2146 14.9262 15.0224 15.1271 14.8207C15.328 14.6188 15.5193 14.4939 15.7872 14.3892C15.9895 14.3102 16.2935 14.2163 16.8532 14.1906C17.4586 14.1629 17.6402 14.157 19.1731 14.157Z" fill="#EFC6FE"></path><path d="M19.1727 20.8067C18.1158 20.8067 17.259 19.946 17.259 18.8843C17.259 17.8225 18.1158 16.9618 19.1727 16.9618C20.2296 16.9618 21.0863 17.8225 21.0863 18.8843C21.0863 19.946 20.2296 20.8067 19.1727 20.8067ZM19.1727 15.9227C17.5445 15.9227 16.2246 17.2486 16.2246 18.8843C16.2246 20.5199 17.5445 21.8459 19.1727 21.8459C20.8008 21.8459 22.1207 20.5199 22.1207 18.8843C22.1207 17.2486 20.8008 15.9227 19.1727 15.9227ZM22.9261 15.8057C22.9261 16.1879 22.6177 16.4977 22.2372 16.4977C21.8567 16.4977 21.5483 16.1879 21.5483 15.8057C21.5483 15.4235 21.8567 15.1136 22.2372 15.1136C22.6177 15.1136 22.9261 15.4235 22.9261 15.8057Z" fill="#EFC6FE"></path></svg>