<svg xmlns="http://www.w3.org/2000/svg" width="32" height="34" viewBox="0 0 32 34" fill="none"><circle cx="16" cy="17" r="16" fill="#E7FBBC"></circle><path d="M14.582 20.2773V19.5039C14.582 18.9727 14.7148 18.4492 14.9805 17.9336C15.2539 17.418 15.582 16.957 15.9648 16.5508C16.3477 16.1445 16.7305 15.7461 17.1133 15.3555C17.4961 14.957 17.8203 14.5312 18.0859 14.0781C18.3594 13.6172 18.4961 13.1602 18.4961 12.707C18.4961 11.9961 18.2266 11.4141 17.6875 10.9609C17.1484 10.5 16.4648 10.2695 15.6367 10.2695C14.8711 10.2695 14.1406 10.4688 13.4453 10.8672C12.75 11.2656 12.1602 11.8164 11.6758 12.5195L10.2344 11.1016C10.8594 10.1797 11.6602 9.45703 12.6367 8.93359C13.6133 8.41016 14.6562 8.14844 15.7656 8.14844C17.1875 8.14844 18.3672 8.57031 19.3047 9.41406C20.25 10.2578 20.7227 11.3008 20.7227 12.543C20.7227 12.9961 20.6484 13.4375 20.5 13.8672C20.3516 14.2969 20.1602 14.6797 19.9258 15.0156C19.6992 15.3516 19.4414 15.6797 19.1523 16C18.8711 16.3203 18.5859 16.625 18.2969 16.9141C18.0156 17.2031 17.7578 17.4844 17.5234 17.7578C17.2969 18.0312 17.1094 18.3203 16.9609 18.625C16.8125 18.9219 16.7383 19.2148 16.7383 19.5039V20.2773H14.582ZM16.7383 24.7422C16.4492 25.0234 16.0898 25.1641 15.6602 25.1641C15.2305 25.1641 14.8711 25.0234 14.582 24.7422C14.293 24.4531 14.1484 24.0977 14.1484 23.6758C14.1484 23.2461 14.293 22.8867 14.582 22.5977C14.8711 22.3086 15.2305 22.1641 15.6602 22.1641C16.0898 22.1641 16.4492 22.3086 16.7383 22.5977C17.0273 22.8867 17.1719 23.2461 17.1719 23.6758C17.1719 24.0977 17.0273 24.4531 16.7383 24.7422Z" fill="#282B2C"></path></svg>