<svg width="108" height="108" viewBox="0 0 108 108" fill="none" xmlns="http://www.w3.org/2000/svg">
<path d="M50.3419 105.908L49.505 105.864L49.821 100.02C49.8392 99.6843 49.9128 99.3966 50.042 99.1568C50.1688 98.9169 50.3516 98.7357 50.5906 98.6131C50.8272 98.4904 51.1205 98.4382 51.4704 98.4566C51.4987 98.4581 51.5271 98.4596 51.5555 98.4611C51.5838 98.4626 51.6122 98.4641 51.6406 98.4656L51.5984 99.2457C51.57 99.2442 51.544 99.2428 51.5204 99.2416C51.4967 99.2403 51.4707 99.239 51.4424 99.2375C51.187 99.2241 50.9962 99.2899 50.8698 99.435C50.7435 99.5777 50.6729 99.7874 50.6579 100.064L50.3419 105.908ZM49.8815 106.794C50.0446 106.802 50.1823 106.865 50.2945 106.983C50.4043 107.1 50.455 107.236 50.4465 107.392C50.4381 107.548 50.373 107.679 50.2511 107.784C50.1269 107.889 49.9832 107.937 49.8201 107.929C49.657 107.92 49.5205 107.857 49.4107 107.74C49.2985 107.623 49.2466 107.486 49.255 107.33C49.2634 107.174 49.3298 107.043 49.454 106.939C49.5758 106.833 49.7183 106.785 49.8815 106.794Z" fill="black"/>
<path d="M45.5328 99.8186C46.0191 99.8958 46.4269 100.079 46.7562 100.369C47.0831 100.658 47.3155 101.027 47.4532 101.475C47.5886 101.924 47.6109 102.426 47.52 102.982C47.4283 103.543 47.2466 104.016 46.9748 104.402C46.7007 104.787 46.3623 105.067 45.9598 105.24C45.5549 105.413 45.1093 105.461 44.6229 105.384C44.1366 105.307 43.73 105.123 43.403 104.834C43.0738 104.545 42.8416 104.175 42.7066 103.724C42.5692 103.273 42.5463 102.767 42.638 102.207C42.7289 101.651 42.9112 101.181 43.185 100.798C43.4564 100.414 43.7945 100.136 44.1994 99.9628C44.602 99.7894 45.0464 99.7413 45.5328 99.8186ZM45.4113 100.562C45.0419 100.503 44.7224 100.549 44.453 100.701C44.1836 100.852 43.9664 101.073 43.8014 101.363C43.6364 101.653 43.5245 101.978 43.4657 102.338C43.4069 102.698 43.4093 103.042 43.4731 103.371C43.5369 103.7 43.6723 103.979 43.8795 104.209C44.0867 104.438 44.375 104.582 44.7444 104.641C45.1138 104.7 45.4334 104.652 45.7033 104.498C45.9731 104.345 46.1907 104.121 46.356 103.829C46.5214 103.536 46.6335 103.21 46.6923 102.85C46.7511 102.491 46.7485 102.147 46.6843 101.821C46.6202 101.494 46.4843 101.217 46.2768 100.99C46.0692 100.763 45.7807 100.62 45.4113 100.562Z" fill="black"/>
<path d="M40.7794 98.9331L39.3247 104.19L38.5154 103.973L39.9701 98.7155L40.7794 98.9331ZM38.6707 104.956C38.8285 104.998 38.9497 105.088 39.0343 105.226C39.1167 105.363 39.137 105.507 39.0954 105.658C39.0537 105.809 38.962 105.923 38.8203 106C38.6763 106.076 38.5254 106.093 38.3677 106.051C38.2099 106.008 38.0899 105.919 38.0075 105.781C37.9229 105.643 37.9014 105.499 37.9431 105.348C37.9847 105.198 38.0776 105.084 38.2216 105.008C38.3633 104.931 38.513 104.913 38.6707 104.956Z" fill="black"/>
<path d="M35.9045 100.874L37.1146 97.8242L37.8966 98.1256L35.885 103.196L35.1295 102.905L35.4438 102.112L35.3776 102.087C35.1561 102.298 34.8929 102.435 34.5879 102.498C34.2821 102.563 33.937 102.521 33.5526 102.373C33.208 102.24 32.9344 102.054 32.7318 101.813C32.5283 101.575 32.4111 101.286 32.3801 100.947C32.3483 100.61 32.4179 100.226 32.5891 99.7945L33.8672 96.5728L34.6493 96.8742L33.392 100.043C33.234 100.441 33.2147 100.792 33.3342 101.094C33.4528 101.398 33.6932 101.62 34.0555 101.76C34.3052 101.856 34.5497 101.888 34.7891 101.856C35.0262 101.823 35.2422 101.725 35.4369 101.562C35.6317 101.398 35.7875 101.169 35.9045 100.874Z" fill="black"/>
<path d="M28.527 93.806L26.8723 99.2404L26.1351 98.7584L27.4803 94.6489L27.4327 94.6178L24.1259 97.4448L23.3769 96.9551L24.7379 92.8729L24.6903 92.8418L21.3795 95.6493L20.6424 95.1674L25.0792 91.5519L25.7688 92.0027L24.4276 96.1318L24.4989 96.1784L27.8375 93.3552L28.527 93.806Z" fill="black"/>
<path d="M23.4324 90.0732C23.7 90.2919 23.901 90.5402 24.0354 90.8181C24.1682 91.0978 24.2188 91.3852 24.1871 91.6803C24.1539 91.9772 24.0229 92.2615 23.7943 92.5332C23.5932 92.7724 23.3824 92.9273 23.1621 92.9979C22.9403 93.0704 22.7138 93.084 22.4827 93.0389C22.2516 92.9937 22.0222 92.9133 21.7947 92.7977C21.5638 92.6824 21.3396 92.5573 21.1221 92.4224C20.838 92.2453 20.6094 92.0997 20.4361 91.9857C20.2596 91.872 20.1171 91.806 20.0087 91.7878C19.8985 91.768 19.7999 91.8098 19.7131 91.9131L19.6948 91.9348C19.4692 92.2029 19.3682 92.4719 19.3917 92.7418C19.4134 93.0102 19.5737 93.2665 19.8725 93.5106C20.1823 93.7638 20.4816 93.8952 20.7704 93.905C21.0592 93.9147 21.3033 93.8727 21.5029 93.7789L21.936 94.4996C21.6126 94.6634 21.2998 94.741 20.9976 94.7325C20.6921 94.7244 20.4066 94.6592 20.1412 94.5371C19.8724 94.4154 19.6317 94.2676 19.419 94.0938C19.2834 93.983 19.1413 93.8394 18.9927 93.663C18.8408 93.4869 18.7235 93.2825 18.6408 93.0498C18.5562 92.8157 18.542 92.555 18.5981 92.2676C18.6543 91.9803 18.8218 91.6708 19.1007 91.3393L21.4141 88.5892L22.0631 89.1195L21.5876 89.6847L21.6206 89.7117C21.7408 89.6571 21.8957 89.6201 22.0852 89.6007C22.2748 89.5813 22.4853 89.605 22.7167 89.6719C22.9482 89.7387 23.1867 89.8725 23.4324 90.0732ZM22.8488 90.5684C22.5921 90.3587 22.3339 90.2318 22.074 90.1876C21.8124 90.142 21.5704 90.1612 21.3479 90.2455C21.1237 90.3282 20.9384 90.4565 20.7921 90.6304L20.2983 91.2174C20.3532 91.2072 20.4389 91.2268 20.5552 91.276C20.6682 91.3255 20.7936 91.3898 20.9314 91.4687C21.0658 91.548 21.1959 91.6268 21.3218 91.7051C21.4443 91.7838 21.5442 91.8471 21.6214 91.895C21.8084 92.011 21.9958 92.1045 22.1836 92.1755C22.368 92.2467 22.5456 92.271 22.7162 92.2484C22.8834 92.2261 23.0356 92.1334 23.1728 91.9704C23.3602 91.7475 23.4186 91.5109 23.3477 91.2604C23.2736 91.0103 23.1072 90.7796 22.8488 90.5684Z" fill="black"/>
<path d="M19.4393 86.6649L15.5038 90.4416L14.9148 89.8454L18.8503 86.0687L19.4393 86.6649ZM14.5483 90.7679C14.6632 90.8841 14.722 91.0228 14.7249 91.184C14.7262 91.3436 14.6704 91.4775 14.5577 91.5857C14.445 91.6939 14.3077 91.7452 14.1459 91.7397C13.9824 91.7326 13.8432 91.6709 13.7284 91.5547C13.6136 91.4385 13.5556 91.3006 13.5543 91.141C13.5514 90.9798 13.6063 90.8451 13.7191 90.7369C13.8318 90.6287 13.9699 90.5782 14.1334 90.5854C14.2952 90.5908 14.4335 90.6517 14.5483 90.7679Z" fill="black"/>
<path d="M10.8917 85.1508L11.4534 84.7161L13.2147 86.927L12.653 87.3617L10.8917 85.1508ZM11.1061 87.517L10.5839 86.8615L14.6957 83.68C14.8829 83.5352 15.0019 83.3997 15.0528 83.2735C15.1003 83.147 15.106 83.0288 15.07 82.919C15.0306 82.8088 14.9726 82.7055 14.8959 82.6093C14.8383 82.537 14.7874 82.4807 14.743 82.4402C14.6968 82.4011 14.6598 82.3699 14.632 82.3465L15.1212 81.7525C15.1735 81.7839 15.2398 81.8328 15.3201 81.8994C15.4022 81.9646 15.492 82.0582 15.5893 82.1804C15.7368 82.3656 15.8411 82.5782 15.9022 82.8183C15.9619 83.0565 15.9557 83.2977 15.8839 83.5418C15.8106 83.7841 15.6485 84.0023 15.3976 84.1965L11.1061 87.517Z" fill="black"/>
<path d="M6.599 82.0624L12.7894 78.2452L13.2386 78.9527L7.04819 82.77L6.599 82.0624Z" fill="black"/>
<path d="M10.7956 74.6522L5.8767 77.0095L5.50587 76.2579L10.4247 73.9006L10.7956 74.6522ZM4.86833 77.0202C4.94061 77.1667 4.95277 77.317 4.90481 77.4713C4.85579 77.6234 4.76083 77.7332 4.61993 77.8007C4.47902 77.8683 4.33274 77.8741 4.18107 77.8181C4.02835 77.7601 3.91585 77.6578 3.84357 77.5113C3.77129 77.3648 3.75966 77.2155 3.80867 77.0634C3.85663 76.9091 3.95107 76.7982 4.09197 76.7307C4.23288 76.6632 4.37969 76.6585 4.53241 76.7165C4.68408 76.7725 4.79605 76.8737 4.86833 77.0202Z" fill="black"/>
<path d="M4.09287 69.4918L4.55234 70.1274C4.45038 70.2139 4.3595 70.3203 4.27969 70.4467C4.19683 70.5716 4.14545 70.7205 4.12553 70.8934C4.10561 71.0663 4.13754 71.2673 4.22134 71.4963C4.33604 71.8097 4.50413 72.0452 4.7256 72.2027C4.94403 72.3587 5.16366 72.3974 5.3845 72.319C5.5808 72.2492 5.70981 72.1229 5.77151 71.9402C5.83321 71.7575 5.84666 71.5015 5.81187 71.1722L5.72102 70.3452C5.66497 69.8476 5.71074 69.4457 5.85834 69.1394C6.00371 68.834 6.25597 68.6175 6.61512 68.4899C6.90957 68.3852 7.20371 68.3761 7.49753 68.4627C7.79055 68.5469 8.05889 68.7154 8.30256 68.9679C8.54623 69.2205 8.74087 69.5458 8.88649 69.9437C9.07767 70.4662 9.12214 70.9391 9.01989 71.3623C8.91764 71.7856 8.66458 72.1205 8.26071 72.367L7.79998 71.6866C8.05056 71.5171 8.2088 71.3089 8.2747 71.0619C8.33979 70.8126 8.31335 70.5268 8.19539 70.2044C8.06116 69.8376 7.87651 69.5741 7.64144 69.414C7.40334 69.2524 7.17386 69.2108 6.95302 69.2893C6.77456 69.3527 6.64788 69.4681 6.57298 69.6354C6.49585 69.8035 6.47435 70.0272 6.50849 70.3065L6.62012 71.2316C6.68024 71.7404 6.63346 72.1464 6.47977 72.4498C6.32304 72.7517 6.06733 72.9657 5.71264 73.0917C5.42265 73.1948 5.13642 73.2048 4.85396 73.1218C4.57069 73.0365 4.31382 72.8753 4.08335 72.6382C3.85206 72.3988 3.67052 72.099 3.53873 71.7389C3.35325 71.232 3.31916 70.7943 3.43648 70.426C3.55298 70.0555 3.77177 69.7441 4.09287 69.4918Z" fill="black"/>
<path d="M1.70554 65.2432L2.39604 65.077L3.07617 67.8206L2.38568 67.9869L1.70554 65.2432ZM0.916936 67.4931L0.715287 66.6797L5.76971 65.4627C5.99988 65.4073 6.16424 65.3324 6.2628 65.2381C6.35849 65.142 6.4128 65.0364 6.42573 64.9213C6.43578 64.8044 6.426 64.6862 6.39638 64.5667C6.37416 64.4771 6.35133 64.4047 6.32788 64.3495C6.30214 64.2948 6.28154 64.251 6.26609 64.2182L6.957 63.8766C6.99138 63.9267 7.03118 63.9987 7.07639 64.0925C7.1239 64.1858 7.16645 64.3083 7.20405 64.4599C7.26101 64.6897 7.26735 64.9268 7.22306 65.1712C7.17821 65.4134 7.07245 65.6312 6.90579 65.8247C6.73856 66.016 6.50074 66.1487 6.19232 66.223L0.916936 67.4931Z" fill="black"/>
<path d="M3.69587 43.2178L4.46397 43.3606L3.86606 46.4857L3.09796 46.343L3.69587 43.2178Z" fill="black"/>
<path d="M7.01318 29.3477L7.4238 28.6172L12.5605 31.4213C12.8556 31.5824 13.0827 31.7725 13.242 31.9916C13.4024 32.2086 13.485 32.4506 13.4898 32.7175C13.4957 32.9824 13.4129 33.2675 13.2412 33.5729C13.2273 33.5977 13.2134 33.6225 13.1994 33.6472C13.1855 33.672 13.1716 33.6968 13.1577 33.7215L12.472 33.3472C12.4859 33.3224 12.4986 33.2997 12.5102 33.2791C12.5218 33.2584 12.5346 33.2357 12.5485 33.211C12.6738 32.9881 12.6989 32.7888 12.6239 32.613C12.551 32.4383 12.393 32.2846 12.1499 32.1519L7.01318 29.3477ZM6.41708 28.553C6.33704 28.6954 6.21919 28.7916 6.06353 28.8415C5.90903 28.8893 5.7632 28.8757 5.62606 28.8009C5.48891 28.726 5.39993 28.6113 5.3591 28.4569C5.31944 28.3004 5.33962 28.1509 5.41966 28.0085C5.4997 27.8661 5.61697 27.771 5.77147 27.7232C5.92713 27.6734 6.07353 27.6858 6.21068 27.7607C6.34782 27.8356 6.43623 27.9513 6.47589 28.1078C6.51672 28.2622 6.49711 28.4106 6.41708 28.553Z" fill="black"/>
<path d="M14.6304 27.7128C14.3446 28.1138 13.9975 28.399 13.589 28.5683C13.182 28.7356 12.7448 28.7842 12.2774 28.714C11.8113 28.6418 11.3467 28.4454 10.8834 28.1247C10.4163 27.8013 10.0682 27.4352 9.83934 27.0262C9.61183 26.6154 9.50889 26.1929 9.53054 25.7587C9.55356 25.3227 9.70797 24.9041 9.99377 24.5031C10.2796 24.1021 10.626 23.818 11.0331 23.6506C11.4415 23.4813 11.8797 23.4334 12.3477 23.5069C12.817 23.5785 13.2853 23.7759 13.7524 24.0993C14.2157 24.42 14.5601 24.7851 14.7857 25.1946C15.0126 25.6022 15.1146 26.024 15.0916 26.4601C15.0699 26.8943 14.9162 27.3118 14.6304 27.7128ZM14.0114 27.2843C14.2285 26.9797 14.3283 26.6745 14.3108 26.3688C14.2933 26.063 14.1897 25.7739 14.0001 25.5016C13.8105 25.2292 13.5658 24.9893 13.266 24.7818C12.9662 24.5743 12.6533 24.4282 12.327 24.3434C12.0008 24.2587 11.6878 24.2594 11.3881 24.3455C11.0883 24.4317 10.8299 24.627 10.6128 24.9316C10.3957 25.2362 10.2968 25.5421 10.3163 25.8492C10.3358 26.1564 10.4413 26.4468 10.6328 26.7205C10.8244 26.9942 11.0701 27.2347 11.3698 27.4423C11.6696 27.6498 11.9816 27.7952 12.3059 27.8786C12.6302 27.962 12.9412 27.96 13.239 27.8725C13.5368 27.785 13.7943 27.5889 14.0114 27.2843Z" fill="black"/>
<path d="M17.5239 23.8933L13.3932 20.3311L13.9496 19.7044L18.0803 23.2666L17.5239 23.8933ZM12.9877 19.4188C12.8792 19.5409 12.7435 19.6099 12.5807 19.6258C12.4194 19.6398 12.2796 19.5959 12.1613 19.4938C12.0429 19.3918 11.9802 19.2611 11.9729 19.1016C11.9672 18.9405 12.0186 18.7988 12.1271 18.6766C12.2355 18.5545 12.3704 18.4864 12.5317 18.4723C12.6945 18.4564 12.8351 18.4995 12.9535 18.6016C13.0718 18.7036 13.1338 18.8352 13.1395 18.9964C13.1467 19.1558 13.0961 19.2966 12.9877 19.4188Z" fill="black"/>
<path d="M17.9026 18.7431L20.1458 21.1378L19.5259 21.7018L15.797 17.7209L16.3959 17.176L16.9785 17.7981L17.0311 17.7503C16.9363 17.4621 16.9277 17.169 17.0054 16.8711C17.0815 16.5714 17.2719 16.283 17.5766 16.0058C17.8498 15.7573 18.1406 15.5951 18.4491 15.5193C18.7559 15.4417 19.0707 15.4626 19.3933 15.5819C19.7142 15.6995 20.0333 15.9277 20.3506 16.2663L22.72 18.7958L22.1001 19.3598L19.7695 16.8718C19.4766 16.559 19.1661 16.3903 18.838 16.3655C18.5083 16.3391 18.1999 16.4565 17.9127 16.7177C17.7148 16.8978 17.5776 17.101 17.501 17.3275C17.4262 17.5523 17.4203 17.7866 17.4831 18.0303C17.5459 18.2739 17.6858 18.5115 17.9026 18.7431Z" fill="black"/>
<path d="M27.5872 15.2941L23.3509 11.4471L24.1125 11.0048L27.2751 13.9971L27.3242 13.9685L26.1884 9.79929L26.9623 9.34989L30.093 12.3442L30.1422 12.3157L29.0259 8.1515L29.7875 7.70923L31.1494 13.2254L30.437 13.6391L27.2548 10.6418L27.1811 10.6846L28.2996 14.8803L27.5872 15.2941Z" fill="black"/>
<path d="M33.225 12.4227C32.9094 12.5638 32.5958 12.6328 32.2842 12.6295C31.9716 12.6241 31.6876 12.5423 31.4324 12.3842C31.1762 12.2239 30.9738 11.9824 30.8253 11.6599C30.6946 11.376 30.6448 11.1208 30.676 10.8942C30.7062 10.6655 30.7921 10.4585 30.9336 10.2734C31.075 10.0882 31.2479 9.92016 31.452 9.76922C31.6573 9.61517 31.8687 9.47138 32.0861 9.33786C32.3708 9.16385 32.6027 9.02512 32.7818 8.92169C32.9621 8.81513 33.0841 8.7178 33.1478 8.62968C33.2136 8.54059 33.2183 8.43476 33.1619 8.31219L33.15 8.28638C33.0035 7.96812 32.8021 7.75996 32.5458 7.66191C32.2917 7.56289 31.9886 7.59215 31.6363 7.74968C31.2711 7.91302 31.0213 8.12064 30.8871 8.37255C30.7529 8.62447 30.6853 8.85959 30.6842 9.07792L29.8392 9.1446C29.8302 8.78555 29.8952 8.47383 30.0341 8.20945C30.1742 7.94195 30.3574 7.71737 30.5839 7.5357C30.8116 7.35091 31.0507 7.20246 31.3014 7.09035C31.4614 7.01883 31.654 6.95603 31.8793 6.90196C32.1057 6.84477 32.343 6.83074 32.5909 6.85988C32.8411 6.88806 33.0849 6.99035 33.3225 7.16676C33.5601 7.34317 33.7695 7.62814 33.9507 8.02167L35.4537 11.286L34.6886 11.6282L34.3797 10.9572L34.3408 10.9746C34.3385 11.1053 34.305 11.259 34.2404 11.4357C34.1758 11.6124 34.0628 11.7887 33.9014 11.9646C33.74 12.1405 33.5146 12.2932 33.225 12.4227ZM33.0268 11.6867C33.3294 11.5514 33.5572 11.3782 33.7102 11.1672C33.8653 10.9552 33.9528 10.7319 33.9726 10.4975C33.9945 10.2621 33.9579 10.0411 33.8629 9.8347L33.5421 9.13796C33.5275 9.19116 33.4725 9.25854 33.3771 9.34008C33.2829 9.41851 33.17 9.50145 33.0382 9.58889C32.9076 9.67321 32.7793 9.75394 32.6533 9.83106C32.5283 9.90507 32.4273 9.96581 32.3501 10.0133C32.1632 10.128 31.9966 10.2531 31.8505 10.3884C31.7055 10.5207 31.6063 10.6675 31.5529 10.8288C31.5006 10.987 31.519 11.1629 31.6082 11.3565C31.7299 11.621 31.9204 11.777 32.1794 11.8245C32.4396 11.8689 32.7221 11.823 33.0268 11.6867Z" fill="black"/>
<path d="M38.0857 10.384L36.3499 5.21305L37.1467 4.95327L38.8825 10.1243L38.0857 10.384ZM36.4658 4.21913C36.3105 4.26976 36.1588 4.26068 36.0109 4.19189C35.8652 4.12236 35.7675 4.01353 35.7177 3.86541C35.668 3.71728 35.6806 3.57249 35.7555 3.43105C35.8326 3.28887 35.9488 3.19247 36.1041 3.14183C36.2595 3.0912 36.41 3.10065 36.5557 3.17017C36.7036 3.23897 36.8024 3.34743 36.8522 3.49555C36.9019 3.64368 36.8882 3.78883 36.811 3.93101C36.7362 4.07245 36.6211 4.16849 36.4658 4.21913Z" fill="black"/>
<path d="M43.1816 3.43944L43.3338 4.13316L40.5692 4.72241L40.417 4.02869L43.1816 3.43944ZM40.9426 2.58051L41.7623 2.4058L42.8766 7.48384C42.9274 7.71508 42.999 7.88135 43.0915 7.98266C43.1858 8.08116 43.2906 8.13872 43.4057 8.15533C43.5227 8.16913 43.6413 8.1632 43.7617 8.13754C43.852 8.11829 43.9251 8.09787 43.981 8.07629C44.0363 8.05239 44.0806 8.03327 44.1138 8.01893L44.4419 8.71874C44.3909 8.7514 44.3179 8.78874 44.2229 8.83077C44.1284 8.87512 44.0047 8.91357 43.8519 8.94615C43.6204 8.9955 43.3826 8.99414 43.1385 8.94209C42.8967 8.88954 42.6805 8.77706 42.49 8.60466C42.3018 8.43177 42.1737 8.19039 42.1057 7.88053L40.9426 2.58051Z" fill="black"/>
<path d="M47.8827 0.959732L48.6669 8.19005L47.8335 8.27786L47.0492 1.04754L47.8827 0.959732Z" fill="black"/>
<path d="M52.8223 8V2.54545H53.6603V8H52.8223ZM53.2484 1.63636C53.085 1.63636 52.9442 1.58073 52.8258 1.46946C52.7098 1.35819 52.6518 1.22443 52.6518 1.06818C52.6518 0.911932 52.7098 0.778172 52.8258 0.666903C52.9442 0.555634 53.085 0.5 53.2484 0.5C53.4117 0.5 53.5514 0.555634 53.6674 0.666903C53.7858 0.778172 53.845 0.911932 53.845 1.06818C53.845 1.22443 53.7858 1.35819 53.6674 1.46946C53.5514 1.58073 53.4117 1.63636 53.2484 1.63636Z" fill="black"/>
<path d="M60.4327 4.26424L59.661 4.39719C59.6275 4.26748 59.5712 4.13896 59.4921 4.0116C59.4157 3.88214 59.304 3.77039 59.157 3.67635C59.01 3.58231 58.8153 3.52252 58.5728 3.49697C58.2408 3.46199 57.9559 3.50934 57.718 3.63901C57.4827 3.76658 57.3524 3.94686 57.3271 4.17987C57.3047 4.38699 57.3623 4.5585 57.4999 4.69441C57.6376 4.83032 57.8622 4.95515 58.1737 5.06891L58.9574 5.35144C59.4297 5.52022 59.7716 5.73835 59.9831 6.00582C60.1948 6.27094 60.2801 6.59297 60.239 6.9719C60.2053 7.28258 60.0857 7.55088 59.8803 7.77681C59.6771 8.00298 59.409 8.16993 59.0758 8.27767C58.7427 8.3854 58.3654 8.41706 57.9439 8.37266C57.3906 8.31437 56.9457 8.1461 56.6092 7.86783C56.2727 7.58956 56.0811 7.21469 56.0347 6.74321L56.8472 6.62885C56.8909 6.92863 57.0096 7.16253 57.2033 7.33053C57.3993 7.49877 57.6681 7.60088 58.0094 7.63685C58.3979 7.67777 58.7153 7.62789 58.9615 7.4872C59.2104 7.3444 59.3475 7.15649 59.3727 6.92349C59.3932 6.7352 59.3443 6.57056 59.2263 6.42957C59.1085 6.28623 58.9165 6.1684 58.6502 6.07608L57.7691 5.76901C57.2851 5.59899 56.94 5.37814 56.7337 5.10645C56.53 4.83266 56.4485 4.50865 56.4891 4.13443C56.5223 3.82846 56.6376 3.56685 56.835 3.34959C57.0347 3.13258 57.2914 2.97275 57.6049 2.8701C57.9208 2.76769 58.2695 2.73658 58.6509 2.77676C59.1877 2.83331 59.5964 2.99539 59.8769 3.263C60.1598 3.53086 60.3451 3.8646 60.4327 4.26424Z" fill="black"/>
<path d="M65.3637 3.99056L65.2115 4.68428L62.4469 4.09503L62.5991 3.40131L65.3637 3.99056ZM63.685 2.29661L64.5046 2.47131L63.3903 7.54934C63.3395 7.78058 63.3351 7.96117 63.3768 8.0911C63.4214 8.21921 63.4927 8.31428 63.5905 8.37629C63.6913 8.43648 63.8018 8.47941 63.9222 8.50507C64.0125 8.52432 64.0876 8.53549 64.1475 8.53858C64.208 8.53935 64.2563 8.53997 64.2925 8.54044L64.2979 9.31131C64.2378 9.32028 64.1556 9.32456 64.0515 9.32415C63.9469 9.32605 63.8181 9.31072 63.6653 9.27815C63.4338 9.2288 63.2178 9.13072 63.0173 8.98391C62.8192 8.83759 62.6695 8.64714 62.5683 8.41256C62.4694 8.17847 62.4539 7.90649 62.5219 7.59663L63.685 2.29661Z" fill="black"/>
<path d="M80.22 12.3112L79.8191 12.9817L77.0676 11.3838L77.4685 10.7133L80.22 12.3112Z" fill="black"/>
<path d="M92.3541 20.0938L92.9105 20.7205L88.4785 24.5424C88.224 24.7619 87.9649 24.9087 87.7014 24.9828C87.4395 25.0586 87.1805 25.0538 86.9242 24.9684C86.6696 24.8848 86.4259 24.712 86.1933 24.45C86.1744 24.4288 86.1556 24.4075 86.1367 24.3863C86.1179 24.3651 86.099 24.3438 86.0801 24.3226L86.6718 23.8124C86.6906 23.8336 86.7079 23.8531 86.7237 23.8708C86.7394 23.8885 86.7567 23.908 86.7755 23.9292C86.9453 24.1204 87.1268 24.2108 87.3202 24.2003C87.5117 24.1915 87.7123 24.0966 87.9221 23.9157L92.3541 20.0938ZM93.316 19.8081C93.2076 19.686 93.1562 19.5443 93.1618 19.3831C93.1691 19.2237 93.2319 19.093 93.3502 18.9909C93.4685 18.8889 93.6083 18.8449 93.7696 18.859C93.9325 18.8748 94.0681 18.9438 94.1766 19.066C94.285 19.1881 94.3356 19.3289 94.3284 19.4883C94.3227 19.6495 94.2607 19.7811 94.1424 19.8832C94.0241 19.9852 93.8835 20.0283 93.7206 20.0125C93.5593 19.9984 93.4245 19.9303 93.316 19.8081Z" fill="black"/>
<path d="M91.3287 27.7121C91.0429 27.3111 90.8885 26.8926 90.8655 26.4565C90.8438 26.0224 90.9458 25.6005 91.1714 25.191C91.3983 24.7835 91.7434 24.4193 92.2067 24.0986C92.6739 23.7752 93.1414 23.5768 93.6094 23.5033C94.0787 23.4318 94.5169 23.4797 94.924 23.647C95.3324 23.8163 95.6795 24.1014 95.9653 24.5024C96.2511 24.9034 96.4049 25.321 96.4265 25.7551C96.4495 26.1912 96.3466 26.6137 96.1177 27.0226C95.8902 27.4335 95.5429 27.8006 95.0757 28.124C94.6124 28.4447 94.1471 28.6402 93.6797 28.7104C93.2137 28.7825 92.7764 28.7339 92.368 28.5646C91.9609 28.3973 91.6145 28.1131 91.3287 27.7121ZM91.9477 27.2836C92.1648 27.5882 92.4223 27.7843 92.7201 27.8718C93.0179 27.9593 93.329 27.9613 93.6532 27.8779C93.9775 27.7945 94.2895 27.6491 94.5893 27.4415C94.889 27.234 95.1347 26.9934 95.3263 26.7198C95.5178 26.4461 95.6233 26.1557 95.6428 25.8485C95.6623 25.5414 95.5634 25.2355 95.3463 24.9309C95.1292 24.6263 94.8708 24.4309 94.571 24.3448C94.2713 24.2586 93.9583 24.2579 93.6321 24.3427C93.3059 24.4274 92.9929 24.5736 92.6931 24.7811C92.3933 24.9886 92.1486 25.2285 91.959 25.5009C91.7694 25.7732 91.6658 26.0622 91.6483 26.368C91.6308 26.6738 91.7306 26.979 91.9477 27.2836Z" fill="black"/>
<path d="M94.0016 31.683L98.7892 29.0694L99.1999 29.8L94.4122 32.4136L94.0016 31.683ZM99.796 29.0053C99.7159 28.8629 99.6957 28.7134 99.7354 28.5569C99.7762 28.4025 99.8652 28.2878 100.002 28.2129C100.139 28.1381 100.285 28.1245 100.44 28.1724C100.595 28.2222 100.713 28.3184 100.793 28.4608C100.873 28.6032 100.893 28.7516 100.852 28.906C100.813 29.0625 100.724 29.1782 100.587 29.2531C100.45 29.328 100.303 29.3405 100.148 29.2906C99.9933 29.2428 99.876 29.1477 99.796 29.0053Z" fill="black"/>
<path d="M98.7797 33.7796L95.7501 35.0398L95.4202 34.2694L100.456 32.1746L100.775 32.9189L99.9883 33.2462L100.016 33.3115C100.322 33.3227 100.604 33.4156 100.862 33.5905C101.122 33.7644 101.333 34.0407 101.495 34.4194C101.64 34.7589 101.698 35.085 101.667 35.3979C101.638 35.7098 101.513 35.9951 101.292 36.2538C101.072 36.5116 100.749 36.7297 100.32 36.9079L97.1201 38.2389L96.7901 37.4685L99.9378 36.1593C100.333 35.9947 100.598 35.7642 100.731 35.4678C100.866 35.1705 100.858 34.8434 100.705 34.4865C100.6 34.2406 100.452 34.0431 100.262 33.8939C100.073 33.747 99.8516 33.6607 99.5986 33.6352C99.3456 33.6097 99.0726 33.6578 98.7797 33.7796Z" fill="black"/>
<path d="M104.772 45.98L104.074 46.1098L103.542 43.3335L104.241 43.2037L104.772 45.98ZM105.68 43.7741L105.838 44.5973L100.726 45.5471C100.494 45.5903 100.326 45.6565 100.222 45.7456C100.121 45.8365 100.062 45.9391 100.042 46.0535C100.026 46.1697 100.029 46.2882 100.053 46.4091C100.07 46.4998 100.089 46.5734 100.109 46.6298C100.132 46.6857 100.15 46.7305 100.164 46.7641L99.4558 47.069C99.4242 47.0171 99.3883 46.9431 99.3482 46.847C99.3058 46.7514 99.2699 46.6268 99.2406 46.4733C99.1961 46.2408 99.2025 46.0036 99.2599 45.7618C99.3177 45.5223 99.435 45.3103 99.6118 45.1257C99.7891 44.9435 100.034 44.8234 100.346 44.7655L105.68 43.7741Z" fill="black"/>
<path d="M102.988 48.9611L99.7165 49.2192L99.6487 48.3838L106.899 47.8119L106.967 48.6472L104.305 48.8572L104.31 48.928C104.601 49.0333 104.84 49.2068 105.026 49.4486C105.214 49.6926 105.326 50.0282 105.361 50.4553C105.391 50.8257 105.343 51.156 105.217 51.4462C105.093 51.7362 104.885 51.9699 104.593 52.1473C104.304 52.3268 103.925 52.4351 103.458 52.4719L100.003 52.7445L99.935 51.9092L103.334 51.6411C103.765 51.607 104.09 51.4686 104.308 51.2258C104.528 50.9852 104.623 50.6678 104.591 50.2738C104.568 50.0001 104.491 49.7592 104.357 49.5513C104.224 49.3456 104.042 49.1891 103.81 49.0815C103.578 48.9763 103.304 48.9362 102.988 48.9611Z" fill="black"/>
<path d="M99.8419 55.6322C99.8561 55.1068 99.9843 54.6567 100.227 54.2817C100.471 53.9092 100.806 53.6255 101.23 53.4306C101.657 53.2382 102.149 53.1493 102.708 53.1639C103.266 53.1786 103.756 53.2933 104.176 53.508C104.599 53.7251 104.925 54.0202 105.154 54.3933C105.386 54.7688 105.495 55.2027 105.481 55.6949C105.474 55.9789 105.419 56.2581 105.317 56.5325C105.215 56.8069 105.054 57.0549 104.835 57.2765C104.618 57.4982 104.334 57.6719 103.982 57.7977C103.631 57.9234 103.201 57.9796 102.692 57.9663L102.337 57.957L102.45 53.7539L103.175 53.773L103.084 57.124C103.392 57.1321 103.668 57.0778 103.913 56.961C104.157 56.8467 104.352 56.6789 104.498 56.4578C104.644 56.239 104.721 55.9781 104.729 55.6752C104.738 55.3415 104.663 55.0506 104.504 54.8025C104.347 54.5568 104.139 54.3655 103.88 54.2284C103.621 54.0913 103.341 54.0189 103.04 54.011L102.557 53.9983C102.146 53.9875 101.795 54.0493 101.505 54.1838C101.217 54.3207 100.995 54.515 100.839 54.7667C100.685 55.0184 100.604 55.3135 100.594 55.6519C100.589 55.872 100.614 56.0716 100.671 56.2507C100.73 56.4323 100.82 56.5898 100.942 56.7232C101.066 56.8567 101.222 56.9615 101.41 57.0374L101.161 57.8408C100.888 57.7484 100.651 57.5989 100.448 57.3923C100.248 57.1857 100.093 56.933 99.9854 56.6342C99.8797 56.3354 99.8319 56.0014 99.8419 55.6322Z" fill="black"/>
<path d="M99.0648 63.5029L104.768 63.1666L104.556 64.0214L100.212 64.1882L100.198 64.2433L103.978 66.3514L103.763 67.22L99.4397 67.3625L99.426 67.4177L103.189 69.5363L102.977 70.3911L98.0736 67.5012L98.2718 66.7015L102.633 66.5243L102.653 66.4415L98.8665 64.3025L99.0648 63.5029Z" fill="black"/>
<path d="M97.2148 69.5089C97.3335 69.1843 97.5027 68.9116 97.7222 68.6906C97.9439 68.4704 98.2004 68.3242 98.4915 68.2518C98.7849 68.1802 99.0989 68.2038 99.4336 68.3228C99.728 68.4274 99.9456 68.5701 100.086 68.7507C100.229 68.9321 100.317 69.1381 100.352 69.3688C100.386 69.5995 100.386 69.8407 100.351 70.0924C100.319 70.3471 100.275 70.5989 100.219 70.8479C100.145 71.1734 100.083 71.4365 100.032 71.637C99.9828 71.8406 99.9675 71.996 99.9863 72.1031C100.004 72.2125 100.077 72.2898 100.204 72.335L100.231 72.3445C100.561 72.4618 100.85 72.463 101.099 72.3479C101.347 72.2351 101.537 71.9974 101.67 71.635C101.808 71.2593 101.833 70.9354 101.746 70.6633C101.659 70.3912 101.538 70.1785 101.382 70.0252L101.923 69.3733C102.186 69.6177 102.364 69.882 102.457 70.1661C102.551 70.4533 102.584 70.7415 102.557 71.0306C102.53 71.3228 102.47 71.5978 102.376 71.8557C102.316 72.0202 102.226 72.2021 102.108 72.4012C101.991 72.6034 101.836 72.7832 101.642 72.9404C101.448 73.0999 101.205 73.2032 100.913 73.2502C100.621 73.2971 100.271 73.2481 99.8624 73.103L96.4761 71.8995L96.7641 71.1125L97.4601 71.3598L97.4748 71.3198C97.3827 71.2268 97.2959 71.0955 97.2144 70.9258C97.1328 70.7561 97.0852 70.552 97.0716 70.3135C97.058 70.0751 97.1058 69.8069 97.2148 69.5089ZM97.8802 69.8811C97.7663 70.1924 97.7317 70.4765 97.7763 70.7335C97.82 70.9928 97.919 71.2114 98.0732 71.3893C98.2266 71.5694 98.4104 71.6976 98.6246 71.7737L99.3473 72.0306C99.3194 71.9829 99.3094 71.8965 99.3174 71.7712C99.3269 71.6489 99.3462 71.5101 99.3753 71.3546C99.4059 71.2022 99.4375 71.0539 99.4701 70.9097C99.5041 70.7685 99.531 70.6537 99.5507 70.5653C99.5988 70.3512 99.6253 70.1446 99.6301 69.9453C99.6364 69.749 99.6004 69.5754 99.522 69.4245C99.445 69.2765 99.3062 69.1669 99.1054 69.0955C98.831 68.998 98.5866 69.0254 98.372 69.1778C98.1588 69.3332 97.9949 69.5676 97.8802 69.8811Z" fill="black"/>
<path d="M95.3039 74.3661L100.223 76.7234L99.8519 77.4749L94.9331 75.1176L95.3039 74.3661ZM100.854 77.4984C100.926 77.3519 101.039 77.2496 101.192 77.1915C101.343 77.1356 101.489 77.1414 101.63 77.2089C101.771 77.2764 101.866 77.3863 101.915 77.5384C101.963 77.6926 101.951 77.843 101.879 77.9895C101.806 78.136 101.695 78.2372 101.543 78.2931C101.39 78.3512 101.243 78.3465 101.102 78.2789C100.962 78.2114 100.867 78.1005 100.819 77.9463C100.77 77.7942 100.782 77.6449 100.854 77.4984Z" fill="black"/>
<path d="M96.7409 82.7977L96.1364 82.425L97.6514 80.0386L98.256 80.4114L96.7409 82.7977ZM98.9267 81.7928L98.4775 82.5003L94.0523 79.7716C93.8508 79.6473 93.6813 79.5831 93.5438 79.5789C93.4069 79.578 93.2922 79.613 93.1996 79.6838C93.1077 79.7578 93.0288 79.8468 92.9628 79.9507C92.9133 80.0287 92.8767 80.0951 92.8531 80.1501C92.8314 80.2062 92.8141 80.2512 92.8011 80.2849L92.069 80.0337C92.0813 79.9745 92.1057 79.8964 92.1421 79.7992C92.1765 79.7009 92.2356 79.5857 92.3193 79.4538C92.4462 79.254 92.6139 79.0848 92.8224 78.9464C93.0295 78.8099 93.2618 78.7334 93.519 78.7169C93.7751 78.7023 94.0381 78.7783 94.3081 78.9448L98.9267 81.7928Z" fill="black"/>
<path d="M95.2546 87.8292L89.5027 83.3786L90.0249 82.7231L95.7768 87.1737L95.2546 87.8292Z" fill="black"/>
<path d="M86.7414 86.4395L90.677 90.2162L90.0879 90.8124L86.1524 87.0357L86.7414 86.4395ZM91.0334 91.1488C91.1482 91.0326 91.2873 90.9709 91.4508 90.9638C91.6126 90.9583 91.7499 91.0097 91.8626 91.1178C91.9754 91.226 92.0311 91.3599 92.0299 91.5195C92.027 91.6807 91.9681 91.8194 91.8533 91.9356C91.7385 92.0518 91.6002 92.1127 91.4384 92.1182C91.2749 92.1253 91.1368 92.0748 91.024 91.9666C90.9113 91.8584 90.8564 91.7237 90.8593 91.5625C90.8605 91.4029 90.9186 91.265 91.0334 91.1488Z" fill="black"/>
<path d="M84.115 94.4059L84.5608 93.7665C84.6782 93.8326 84.8108 93.8817 84.9585 93.9139C85.1059 93.9493 85.2652 93.9475 85.4365 93.9085C85.6078 93.8694 85.7879 93.7727 85.9767 93.6184C86.2352 93.4072 86.4011 93.1723 86.4743 92.9138C86.5473 92.6585 86.5083 92.4412 86.3574 92.2619C86.2233 92.1024 86.0587 92.0245 85.8637 92.0279C85.6686 92.0314 85.4205 92.1042 85.1194 92.2463L84.3644 92.6064C83.9105 92.8244 83.5125 92.9158 83.1704 92.8805C82.8298 92.847 82.5368 92.6844 82.2914 92.3927C82.0903 92.1536 81.9801 91.8829 81.9609 91.5806C81.9399 91.2799 82.0074 90.974 82.1635 90.6631C82.3195 90.3522 82.5616 90.0627 82.8898 89.7945C83.3206 89.4425 83.7549 89.2436 84.1927 89.1977C84.6305 89.1518 85.0363 89.2757 85.4102 89.5693L84.9222 90.2248C84.6746 90.0481 84.4219 89.9702 84.1643 89.9912C83.9048 90.0137 83.6421 90.1336 83.3763 90.3508C83.0738 90.5979 82.887 90.8576 82.8158 91.1297C82.7444 91.4051 82.7841 91.6325 82.935 91.8118C83.0569 91.9568 83.2103 92.0362 83.3953 92.0502C83.5818 92.0659 83.8019 92.0114 84.0557 91.8865L84.8969 91.4744C85.3599 91.2489 85.7622 91.1571 86.1037 91.199C86.4449 91.2443 86.7367 91.4109 86.979 91.699C87.1771 91.9345 87.2855 92.1975 87.304 92.488C87.3208 92.78 87.2562 93.0728 87.1102 93.3663C86.9624 93.6613 86.74 93.9301 86.443 94.1728C86.025 94.5143 85.6207 94.6919 85.23 94.7054C84.8374 94.7205 84.4657 94.6207 84.115 94.4059Z" fill="black"/>
<path d="M80.8757 98.0712L80.4791 97.482L82.845 95.9352L83.2416 96.5244L80.8757 98.0712ZM83.2818 98.0594L82.5803 98.5179L79.6773 94.2051C79.5451 94.0087 79.4172 93.8802 79.2937 93.8196C79.1694 93.7622 79.0505 93.7466 78.9369 93.7728C78.8226 93.8023 78.7139 93.8507 78.6109 93.9181C78.5336 93.9686 78.4729 94.014 78.4286 94.0542C78.3857 94.0964 78.3513 94.1302 78.3256 94.1555L77.7625 93.6243C77.7982 93.5755 77.8527 93.5144 77.926 93.441C77.998 93.3657 78.0993 93.2853 78.2301 93.1998C78.4283 93.0702 78.6509 92.9855 78.898 92.9456C79.1431 92.9069 79.3862 92.9332 79.6274 93.0245C79.8665 93.117 80.0747 93.2948 80.2518 93.558L83.2818 98.0594Z" fill="black"/>
<path d="M64.4734 102.756L64.265 102.003L67.3378 101.177L67.5461 101.93L64.4734 102.756Z" fill="black"/>
</svg>
