<svg xmlns="http://www.w3.org/2000/svg" width="76" height="76" viewBox="0 0 76 76" fill="none"><circle cx="38" cy="38" r="38" fill="#EFC8FD"></circle><path d="M51.4841 35.1774C51.4099 35.3951 51.3629 35.5337 51.3307 35.6227C51.2961 35.7044 51.2689 35.7761 51.2466 35.8355L51.1378 36.12C50.9621 36.59 50.6331 37.4609 50.2818 38.2995C49.8884 39.2396 49.4555 40.1525 48.9978 41.0159C48.5599 41.8373 48.0874 42.6314 47.5951 43.3786C47.2784 43.856 46.9494 44.3211 46.6055 44.7689L40.3291 36.4391C40.7249 36.1695 41.1084 35.8924 41.472 35.6104C42.0806 35.1378 42.662 34.6381 43.1939 34.126C43.8841 33.4605 44.4655 32.8049 45.0197 32.0676C45.5961 31.2983 46.0909 30.5091 46.4917 29.7223C46.9147 28.8861 47.2438 28.0277 47.4664 27.1667C47.6916 26.3033 47.8128 25.4276 47.8276 24.5666C47.84 23.7082 47.7509 22.8571 47.5555 22.0358C47.365 21.2293 47.0731 20.4475 46.6871 19.7127C46.316 19.0027 45.8559 18.3347 45.319 17.7237C44.8045 17.1373 44.2157 16.6054 43.5724 16.1403C42.9515 15.6926 42.2761 15.3066 41.5636 14.99C40.8684 14.6832 40.1361 14.4407 39.389 14.2775C38.6443 14.1117 37.8799 14.0202 37.1228 14.0028C36.3534 13.9855 35.584 14.0474 34.8369 14.1834C34.0675 14.3245 33.3154 14.5446 32.6054 14.839C31.8657 15.1458 31.1656 15.5342 30.5248 15.9944C29.8593 16.4719 29.2507 17.031 28.7213 17.6544C28.1745 18.2952 27.707 19.0126 27.3309 19.782C26.945 20.5737 26.6531 21.4321 26.4675 22.3351C26.2671 23.3049 26.1855 24.3267 26.2251 25.3682C26.2548 26.1697 26.3587 27.0356 26.5244 27.8718C26.6852 28.6783 26.9005 29.4403 27.1973 30.2691C27.4942 31.1003 27.8307 31.8747 28.2908 32.7826C28.4541 33.1018 28.6347 33.4481 28.8648 33.8538C27.8158 34.5169 27.138 35.024 26.5714 35.4743C25.7105 36.1596 25.0302 36.7805 24.3671 37.4831C23.7759 38.109 23.2341 38.7696 22.7566 39.44C22.2865 40.0981 21.8709 40.7859 21.5171 41.481C21.1708 42.1639 20.8764 42.8665 20.6488 43.5691C20.4212 44.2642 20.2505 44.9718 20.1416 45.6769C20.0278 46.4116 19.9833 47.1241 20.0056 47.8515C20.0253 48.5739 20.1144 49.3284 20.2604 50.031C20.4335 50.8474 20.6933 51.649 21.0322 52.4134C21.3514 53.1284 21.7447 53.8137 22.2 54.4495C22.6403 55.068 23.1475 55.6494 23.7041 56.1813C24.2855 56.7354 24.9015 57.2179 25.5893 57.6533C26.2696 58.0862 27.0415 58.487 27.8232 58.8086C28.7609 59.197 29.7628 59.4939 30.8019 59.6943C31.7816 59.8848 32.7959 59.9837 33.8201 59.9961H34.0131C34.9705 59.9961 35.9477 59.9194 36.9249 59.7685C37.9763 59.6027 39.0426 59.3479 40.0916 59.0115C41.1059 58.6824 42.1301 58.2718 43.137 57.7893C43.9732 57.3886 44.7377 56.9655 45.512 56.4707L49.1834 61.3444L55.5043 56.5796L51.5089 51.2779C51.7587 50.9934 52.0037 50.7015 52.2436 50.4071C52.9264 49.5684 53.5845 48.6728 54.1981 47.7451C54.8289 46.7901 55.4326 45.7758 55.9867 44.7318C56.5582 43.6581 57.0951 42.5275 57.5824 41.3648C57.9906 40.3876 58.3543 39.4252 58.5473 38.9081L58.619 38.7201C58.7155 38.49 58.8219 38.1857 59 37.6712L51.4841 35.1774ZM34.2209 23.9333C34.2753 23.676 34.3471 23.4533 34.446 23.2554C34.5301 23.0798 34.6316 22.9214 34.7503 22.7829C34.8641 22.6518 34.9952 22.5306 35.1412 22.4267C35.2896 22.3203 35.4579 22.2263 35.636 22.152C35.829 22.0729 36.0368 22.011 36.252 21.9739C36.4549 21.9368 36.6627 21.917 36.8754 21.917C36.9002 21.917 36.9274 21.917 36.9546 21.917C37.1946 21.922 37.4395 21.9517 37.677 22.0036C37.9145 22.0556 38.1421 22.1298 38.3573 22.2263C38.5676 22.3178 38.7606 22.4291 38.9362 22.5553C39.102 22.6765 39.2504 22.8101 39.3766 22.9511C39.4954 23.0872 39.5968 23.2332 39.676 23.3841C39.7526 23.5325 39.812 23.6933 39.8516 23.8566C39.8937 24.0372 39.9135 24.2302 39.911 24.4306C39.906 24.6656 39.8714 24.9179 39.8046 25.1752C39.723 25.4845 39.5993 25.8061 39.431 26.1351C39.243 26.5087 38.9857 26.9144 38.6864 27.3127C38.3895 27.7085 38.0852 28.05 37.6993 28.421C37.3727 28.7377 37.0115 29.0494 36.628 29.3463C36.3559 29.5566 36.0665 29.7644 35.7646 29.9673C35.5989 29.6753 35.4678 29.4304 35.354 29.2053C35.0447 28.5918 34.8344 28.1118 34.6489 27.5972C34.4831 27.1371 34.3743 26.7462 34.2902 26.3231C34.206 25.8976 34.1516 25.4523 34.1368 25.0688C34.1219 24.6606 34.1491 24.2796 34.2209 23.9308V23.9333ZM39.7131 50.652C39.0352 50.9761 38.3252 51.2606 37.6597 51.4758C37.0066 51.6861 36.3485 51.8444 35.7028 51.9459C35.0917 52.0399 34.4881 52.0869 33.9042 52.0795C33.3451 52.0745 32.8206 52.0225 32.2986 51.9211C31.7816 51.8222 31.2942 51.6787 30.8489 51.4931C30.4902 51.3447 30.1314 51.1616 29.837 50.9736C29.5872 50.8153 29.3744 50.6495 29.1691 50.4516C28.9712 50.2636 28.793 50.0607 28.6421 49.8479C28.4912 49.6377 28.3675 49.4224 28.2636 49.1874C28.1498 48.9351 28.0657 48.6728 28.0088 48.4056C27.9568 48.1582 27.9247 47.8812 27.9173 47.6263C27.9098 47.3789 27.9272 47.1439 27.9667 46.8842C28.0088 46.6021 28.0805 46.3151 28.1745 46.0257C28.276 45.709 28.412 45.3899 28.5729 45.0707C28.751 44.7219 28.9637 44.3706 29.2087 44.0267C29.4758 43.6507 29.7851 43.2771 30.129 42.9135C30.5273 42.4879 30.938 42.1168 31.502 41.6691C31.93 41.3277 32.4644 40.9318 33.3773 40.3702L40.7249 50.1201C40.4008 50.3056 40.0693 50.4788 39.7131 50.652Z" fill="#303133"></path></svg>