<svg xmlns="http://www.w3.org/2000/svg" width="108" height="108" viewBox="0 0 108 108" fill="none"><path d="M50.3419 105.91L49.505 105.866L49.821 100.022C49.8392 99.6862 49.9128 99.3985 50.042 99.1588C50.1688 98.9189 50.3516 98.7376 50.5906 98.6151C50.8272 98.4923 51.1205 98.4402 51.4704 98.4586C51.4987 98.4601 51.5271 98.4615 51.5555 98.463C51.5838 98.4645 51.6122 98.466 51.6406 98.4675L51.5984 99.2476C51.57 99.2461 51.544 99.2448 51.5204 99.2435C51.4967 99.2423 51.4707 99.2409 51.4424 99.2394C51.187 99.226 50.9962 99.2918 50.8698 99.4369C50.7435 99.5797 50.6729 99.7893 50.6579 100.066L50.3419 105.91ZM49.8815 106.796C50.0446 106.804 50.1823 106.867 50.2945 106.985C50.4043 107.102 50.455 107.238 50.4465 107.394C50.4381 107.55 50.373 107.681 50.2511 107.786C50.1269 107.891 49.9832 107.939 49.8201 107.93C49.657 107.922 49.5205 107.859 49.4107 107.742C49.2985 107.625 49.2466 107.488 49.255 107.332C49.2634 107.176 49.3298 107.045 49.454 106.94C49.5758 106.835 49.7183 106.787 49.8815 106.796Z" fill="black"></path><path d="M45.5328 99.8181C46.0191 99.8953 46.4269 100.079 46.7562 100.368C47.0831 100.658 47.3155 101.026 47.4532 101.475C47.5886 101.923 47.6109 102.425 47.52 102.981C47.4283 103.542 47.2466 104.015 46.9748 104.401C46.7007 104.787 46.3623 105.066 45.9598 105.24C45.5549 105.413 45.1093 105.461 44.6229 105.383C44.1366 105.306 43.73 105.123 43.403 104.834C43.0738 104.544 42.8416 104.174 42.7066 103.724C42.5692 103.273 42.5463 102.767 42.638 102.206C42.7289 101.65 42.9112 101.18 43.185 100.797C43.4564 100.414 43.7945 100.135 44.1994 99.9623C44.602 99.7889 45.0464 99.7409 45.5328 99.8181ZM45.4113 100.561C45.0419 100.502 44.7224 100.549 44.453 100.7C44.1836 100.852 43.9664 101.072 43.8014 101.363C43.6364 101.653 43.5245 101.978 43.4657 102.338C43.4069 102.697 43.4093 103.042 43.4731 103.371C43.5369 103.7 43.6723 103.979 43.8795 104.208C44.0867 104.438 44.375 104.582 44.7444 104.64C45.1138 104.699 45.4334 104.652 45.7033 104.498C45.9731 104.344 46.1907 104.121 46.356 103.828C46.5214 103.536 46.6335 103.21 46.6923 102.85C46.7511 102.49 46.7485 102.147 46.6843 101.82C46.6202 101.494 46.4843 101.217 46.2768 100.99C46.0692 100.763 45.7807 100.62 45.4113 100.561Z" fill="black"></path><path d="M40.7794 98.9321L39.3247 104.189L38.5154 103.972L39.9701 98.7146L40.7794 98.9321ZM38.6707 104.955C38.8285 104.997 38.9497 105.087 39.0343 105.225C39.1167 105.363 39.137 105.506 39.0954 105.657C39.0537 105.808 38.962 105.922 38.8203 105.999C38.6763 106.075 38.5254 106.092 38.3677 106.05C38.2099 106.007 38.0899 105.918 38.0075 105.78C37.9229 105.642 37.9014 105.498 37.9431 105.347C37.9847 105.197 38.0776 105.083 38.2216 105.007C38.3633 104.93 38.513 104.912 38.6707 104.955Z" fill="black"></path><path d="M35.9045 100.873L37.1146 97.8232L37.8966 98.1246L35.885 103.195L35.1295 102.904L35.4438 102.111L35.3776 102.086C35.1561 102.297 34.8929 102.434 34.5879 102.497C34.2821 102.562 33.937 102.52 33.5526 102.372C33.208 102.239 32.9344 102.053 32.7318 101.812C32.5283 101.574 32.4111 101.285 32.3801 100.946C32.3483 100.609 32.4179 100.225 32.5891 99.7935L33.8672 96.5719L34.6493 96.8732L33.392 100.042C33.234 100.44 33.2147 100.791 33.3342 101.093C33.4528 101.397 33.6932 101.619 34.0555 101.759C34.3052 101.855 34.5497 101.887 34.7891 101.855C35.0262 101.822 35.2422 101.724 35.4369 101.561C35.6317 101.397 35.7875 101.168 35.9045 100.873Z" fill="black"></path><path d="M28.527 93.805L26.8723 99.2394L26.1351 98.7575L27.4803 94.6479L27.4327 94.6168L24.1259 97.4439L23.3769 96.9542L24.7379 92.8719L24.6903 92.8408L21.3795 95.6483L20.6424 95.1664L25.0792 91.5509L25.7688 92.0017L24.4276 96.1308L24.4989 96.1775L27.8375 93.3542L28.527 93.805Z" fill="black"></path><path d="M23.4324 90.0722C23.7 90.2909 23.901 90.5392 24.0354 90.8171C24.1682 91.0968 24.2188 91.3842 24.1871 91.6793C24.1539 91.9762 24.0229 92.2605 23.7943 92.5322C23.5932 92.7714 23.3824 92.9263 23.1621 92.9969C22.9403 93.0694 22.7138 93.0831 22.4827 93.0379C22.2516 92.9927 22.0222 92.9123 21.7947 92.7967C21.5638 92.6814 21.3396 92.5563 21.1221 92.4214C20.838 92.2443 20.6094 92.0987 20.4361 91.9847C20.2596 91.871 20.1171 91.8051 20.0087 91.7868C19.8985 91.7671 19.7999 91.8088 19.7131 91.9121L19.6948 91.9338C19.4692 92.2019 19.3682 92.4709 19.3917 92.7408C19.4134 93.0092 19.5737 93.2655 19.8725 93.5097C20.1823 93.7628 20.4816 93.8942 20.7704 93.904C21.0592 93.9137 21.3033 93.8717 21.5029 93.778L21.936 94.4987C21.6126 94.6624 21.2998 94.74 20.9976 94.7316C20.6921 94.7234 20.4066 94.6583 20.1412 94.5362C19.8724 94.4144 19.6317 94.2666 19.419 94.0929C19.2834 93.982 19.1413 93.8384 18.9927 93.662C18.8408 93.4859 18.7235 93.2815 18.6408 93.0489C18.5562 92.8147 18.542 92.554 18.5981 92.2666C18.6543 91.9793 18.8218 91.6699 19.1007 91.3383L21.4141 88.5883L22.0631 89.1185L21.5876 89.6838L21.6206 89.7107C21.7408 89.6561 21.8957 89.6191 22.0852 89.5997C22.2748 89.5803 22.4853 89.6041 22.7167 89.6709C22.9482 89.7377 23.1867 89.8715 23.4324 90.0722ZM22.8488 90.5675C22.5921 90.3577 22.3339 90.2308 22.074 90.1866C21.8124 90.141 21.5704 90.1603 21.3479 90.2445C21.1237 90.3272 20.9384 90.4555 20.7921 90.6294L20.2983 91.2164C20.3532 91.2063 20.4389 91.2258 20.5552 91.275C20.6682 91.3246 20.7936 91.3888 20.9314 91.4677C21.0658 91.547 21.1959 91.6258 21.3218 91.7042C21.4443 91.7829 21.5442 91.8461 21.6214 91.894C21.8084 92.0101 21.9958 92.1036 22.1836 92.1745C22.368 92.2457 22.5456 92.27 22.7162 92.2474C22.8834 92.2251 23.0356 92.1324 23.1728 91.9694C23.3602 91.7465 23.4186 91.5099 23.3477 91.2595C23.2736 91.0093 23.1072 90.7787 22.8488 90.5675Z" fill="black"></path><path d="M19.4393 86.6634L15.5038 90.4401L14.9148 89.8439L18.8503 86.0672L19.4393 86.6634ZM14.5483 90.7664C14.6632 90.8826 14.722 91.0213 14.7249 91.1826C14.7262 91.3421 14.6704 91.476 14.5577 91.5842C14.445 91.6924 14.3077 91.7437 14.1459 91.7383C13.9824 91.7311 13.8432 91.6694 13.7284 91.5532C13.6136 91.437 13.5556 91.2991 13.5543 91.1396C13.5514 90.9783 13.6063 90.8436 13.7191 90.7354C13.8318 90.6272 13.9699 90.5767 14.1334 90.5839C14.2952 90.5894 14.4335 90.6502 14.5483 90.7664Z" fill="black"></path><path d="M10.8917 85.1498L11.4534 84.7151L13.2147 86.9261L12.653 87.3607L10.8917 85.1498ZM11.1061 87.516L10.5839 86.8605L14.6957 83.6791C14.8829 83.5342 15.0019 83.3987 15.0528 83.2725C15.1003 83.146 15.106 83.0278 15.07 82.918C15.0306 82.8078 14.9726 82.7046 14.8959 82.6083C14.8383 82.5361 14.7874 82.4797 14.743 82.4392C14.6968 82.4002 14.6598 82.3689 14.632 82.3455L15.1212 81.7515C15.1735 81.7829 15.2398 81.8319 15.3201 81.8985C15.4022 81.9636 15.492 82.0573 15.5893 82.1795C15.7368 82.3646 15.8411 82.5773 15.9022 82.8173C15.9619 83.0555 15.9557 83.2967 15.8839 83.5408C15.8106 83.7831 15.6485 84.0013 15.3976 84.1955L11.1061 87.516Z" fill="black"></path><path d="M6.599 82.061L12.7894 78.2437L13.2386 78.9513L7.04819 82.7685L6.599 82.061Z" fill="black"></path><path d="M10.7956 74.6517L5.8767 77.009L5.50587 76.2574L10.4247 73.9001L10.7956 74.6517ZM4.86833 77.0197C4.94061 77.1662 4.95277 77.3166 4.90481 77.4708C4.85579 77.6229 4.76083 77.7327 4.61993 77.8003C4.47902 77.8678 4.33274 77.8736 4.18107 77.8176C4.02835 77.7596 3.91585 77.6573 3.84357 77.5108C3.77129 77.3643 3.75966 77.215 3.80867 77.0629C3.85663 76.9086 3.95107 76.7978 4.09197 76.7302C4.23288 76.6627 4.37969 76.658 4.53241 76.716C4.68408 76.772 4.79605 76.8732 4.86833 77.0197Z" fill="black"></path><path d="M4.09287 69.4938L4.55234 70.1294C4.45038 70.2159 4.3595 70.3223 4.27969 70.4486C4.19683 70.5736 4.14545 70.7225 4.12553 70.8954C4.10561 71.0683 4.13754 71.2692 4.22134 71.4982C4.33604 71.8117 4.50413 72.0472 4.7256 72.2046C4.94403 72.3606 5.16366 72.3994 5.3845 72.3209C5.5808 72.2511 5.70981 72.1249 5.77151 71.9422C5.83321 71.7594 5.84666 71.5034 5.81187 71.1741L5.72102 70.3472C5.66497 69.8495 5.71074 69.4476 5.85834 69.1414C6.00371 68.836 6.25597 68.6195 6.61512 68.4918C6.90957 68.3872 7.20371 68.3781 7.49753 68.4646C7.79055 68.5489 8.05889 68.7173 8.30256 68.9699C8.54623 69.2225 8.74087 69.5477 8.88649 69.9457C9.07767 70.4682 9.12214 70.941 9.01989 71.3643C8.91764 71.7875 8.66458 72.1224 8.26071 72.369L7.79998 71.6885C8.05056 71.5191 8.2088 71.3109 8.2747 71.0638C8.33979 70.8146 8.31335 70.5288 8.19539 70.2064C8.06116 69.8396 7.87651 69.5761 7.64144 69.4159C7.40334 69.2543 7.17386 69.2128 6.95302 69.2913C6.77456 69.3547 6.64788 69.47 6.57298 69.6374C6.49585 69.8055 6.47435 70.0292 6.50849 70.3085L6.62012 71.2336C6.68024 71.7423 6.63346 72.1484 6.47977 72.4517C6.32304 72.7536 6.06733 72.9676 5.71264 73.0937C5.42265 73.1967 5.13642 73.2068 4.85396 73.1237C4.57069 73.0385 4.31382 72.8773 4.08335 72.6401C3.85206 72.4008 3.67052 72.101 3.53873 71.7408C3.35325 71.2339 3.31916 70.7963 3.43648 70.428C3.55298 70.0575 3.77177 69.7461 4.09287 69.4938Z" fill="black"></path><path d="M1.70554 65.2413L2.39604 65.075L3.07617 67.8187L2.38568 67.9849L1.70554 65.2413ZM0.916936 67.4912L0.715287 66.6777L5.76971 65.4608C5.99988 65.4054 6.16424 65.3305 6.2628 65.2361C6.35849 65.14 6.4128 65.0344 6.42573 64.9193C6.43578 64.8024 6.426 64.6843 6.39638 64.5648C6.37416 64.4752 6.35133 64.4027 6.32788 64.3475C6.30214 64.2928 6.28154 64.2491 6.26609 64.2163L6.957 63.8746C6.99138 63.9248 7.03118 63.9968 7.07639 64.0906C7.1239 64.1839 7.16645 64.3063 7.20405 64.458C7.26101 64.6878 7.26735 64.9249 7.22306 65.1693C7.17821 65.4114 7.07245 65.6293 6.90579 65.8228C6.73856 66.014 6.50074 66.1468 6.19232 66.221L0.916936 67.4912Z" fill="black"></path><path d="M3.69587 43.2178L4.46397 43.3606L3.86606 46.4857L3.09796 46.343L3.69587 43.2178Z" fill="black"></path><path d="M7.01318 29.3482L7.4238 28.6176L12.5605 31.4218C12.8556 31.5829 13.0827 31.773 13.242 31.9921C13.4024 32.2091 13.485 32.4511 13.4898 32.718C13.4957 32.9828 13.4129 33.268 13.2412 33.5734C13.2273 33.5982 13.2134 33.623 13.1994 33.6477C13.1855 33.6725 13.1716 33.6973 13.1577 33.722L12.472 33.3477C12.4859 33.3229 12.4986 33.3002 12.5102 33.2796C12.5218 33.2589 12.5346 33.2362 12.5485 33.2115C12.6738 32.9886 12.6989 32.7892 12.6239 32.6135C12.551 32.4388 12.393 32.2851 12.1499 32.1524L7.01318 29.3482ZM6.41708 28.5535C6.33704 28.6959 6.21919 28.7921 6.06353 28.8419C5.90903 28.8897 5.7632 28.8762 5.62606 28.8014C5.48891 28.7265 5.39993 28.6118 5.3591 28.4574C5.31944 28.3009 5.33962 28.1514 5.41966 28.009C5.4997 27.8666 5.61697 27.7715 5.77147 27.7237C5.92713 27.6738 6.07353 27.6863 6.21068 27.7612C6.34782 27.8361 6.43623 27.9518 6.47589 28.1083C6.51672 28.2627 6.49711 28.4111 6.41708 28.5535Z" fill="black"></path><path d="M14.6304 27.7143C14.3446 28.1153 13.9975 28.4004 13.589 28.5697C13.182 28.7371 12.7448 28.7856 12.2774 28.7154C11.8113 28.6433 11.3467 28.4469 10.8834 28.1262C10.4163 27.8028 10.0682 27.4366 9.83934 27.0277C9.61183 26.6169 9.50889 26.1944 9.53054 25.7602C9.55356 25.3241 9.70797 24.9056 9.99377 24.5046C10.2796 24.1036 10.626 23.8194 11.0331 23.6521C11.4415 23.4828 11.8797 23.4349 12.3477 23.5084C12.817 23.5799 13.2853 23.7774 13.7524 24.1008C14.2157 24.4215 14.5601 24.7866 14.7857 25.1961C15.0126 25.6037 15.1146 26.0255 15.0916 26.4616C15.0699 26.8957 14.9162 27.3133 14.6304 27.7143ZM14.0114 27.2858C14.2285 26.9812 14.3283 26.676 14.3108 26.3702C14.2933 26.0644 14.1897 25.7754 14.0001 25.503C13.8105 25.2307 13.5658 24.9908 13.266 24.7833C12.9662 24.5757 12.6533 24.4296 12.327 24.3449C12.0008 24.2601 11.6878 24.2608 11.3881 24.347C11.0883 24.4331 10.8299 24.6285 10.6128 24.9331C10.3957 25.2377 10.2968 25.5436 10.3163 25.8507C10.3358 26.1578 10.4413 26.4483 10.6328 26.7219C10.8244 26.9956 11.0701 27.2362 11.3698 27.4437C11.6696 27.6512 11.9816 27.7967 12.3059 27.8801C12.6302 27.9635 12.9412 27.9615 13.239 27.874C13.5368 27.7865 13.7943 27.5904 14.0114 27.2858Z" fill="black"></path><path d="M17.5239 23.8918L13.3932 20.3297L13.9496 19.703L18.0803 23.2651L17.5239 23.8918ZM12.9877 19.4173C12.8792 19.5394 12.7435 19.6085 12.5807 19.6243C12.4194 19.6384 12.2796 19.5944 12.1613 19.4924C12.0429 19.3903 11.9802 19.2596 11.9729 19.1002C11.9672 18.939 12.0186 18.7973 12.1271 18.6752C12.2355 18.553 12.3704 18.4849 12.5317 18.4708C12.6945 18.455 12.8351 18.4981 12.9535 18.6001C13.0718 18.7022 13.1338 18.8338 13.1395 18.9949C13.1467 19.1544 13.0961 19.2951 12.9877 19.4173Z" fill="black"></path><path d="M17.9026 18.7411L20.1458 21.1358L19.5259 21.6998L15.797 17.719L16.3959 17.1741L16.9785 17.7961L17.0311 17.7483C16.9363 17.4601 16.9277 17.1671 17.0054 16.8691C17.0815 16.5695 17.2719 16.2811 17.5766 16.0038C17.8498 15.7553 18.1406 15.5931 18.4491 15.5173C18.7559 15.4398 19.0707 15.4606 19.3933 15.58C19.7142 15.6976 20.0333 15.9257 20.3506 16.2644L22.72 18.7939L22.1001 19.3578L19.7695 16.8698C19.4766 16.5571 19.1661 16.3883 18.838 16.3636C18.5083 16.3371 18.1999 16.4545 17.9127 16.7158C17.7148 16.8958 17.5776 17.0991 17.501 17.3255C17.4262 17.5504 17.4203 17.7846 17.4831 18.0283C17.5459 18.272 17.6858 18.5096 17.9026 18.7411Z" fill="black"></path><path d="M27.5872 15.2955L23.3509 11.4485L24.1125 11.0063L27.2751 13.9985L27.3242 13.97L26.1884 9.80075L26.9623 9.35135L30.093 12.3457L30.1422 12.3172L29.0259 8.15296L29.7875 7.7107L31.1494 13.2269L30.437 13.6406L27.2548 10.6433L27.1811 10.6861L28.2996 14.8818L27.5872 15.2955Z" fill="black"></path><path d="M33.225 12.4218C32.9094 12.5629 32.5958 12.6318 32.2842 12.6285C31.9716 12.6231 31.6876 12.5413 31.4324 12.3832C31.1762 12.2229 30.9738 11.9815 30.8253 11.6589C30.6946 11.375 30.6448 11.1198 30.676 10.8932C30.7062 10.6645 30.7921 10.4575 30.9336 10.2724C31.075 10.0872 31.2479 9.91919 31.452 9.76825C31.6573 9.61419 31.8687 9.4704 32.0861 9.33689C32.3708 9.16287 32.6027 9.02415 32.7818 8.92071C32.9621 8.81416 33.0841 8.71682 33.1478 8.6287C33.2136 8.53962 33.2183 8.43379 33.1619 8.31121L33.15 8.28541C33.0035 7.96714 32.8021 7.75898 32.5458 7.66093C32.2917 7.56191 31.9886 7.59117 31.6363 7.74871C31.2711 7.91204 31.0213 8.11966 30.8871 8.37158C30.7529 8.62349 30.6853 8.85861 30.6842 9.07694L29.8392 9.14362C29.8302 8.78457 29.8952 8.47286 30.0341 8.20848C30.1742 7.94098 30.3574 7.71639 30.5839 7.53472C30.8116 7.34993 31.0507 7.20148 31.3014 7.08937C31.4614 7.01785 31.654 6.95505 31.8793 6.90098C32.1057 6.84379 32.343 6.82977 32.5909 6.85891C32.8411 6.88708 33.0849 6.98938 33.3225 7.16578C33.5601 7.34219 33.7695 7.62716 33.9507 8.02069L35.4537 11.2851L34.6886 11.6272L34.3797 10.9562L34.3408 10.9736C34.3385 11.1044 34.305 11.2581 34.2404 11.4348C34.1758 11.6115 34.0628 11.7878 33.9014 11.9637C33.74 12.1396 33.5146 12.2923 33.225 12.4218ZM33.0268 11.6857C33.3294 11.5504 33.5572 11.3773 33.7102 11.1662C33.8653 10.9542 33.9528 10.7309 33.9726 10.4965C33.9945 10.2611 33.9579 10.0402 33.8629 9.83372L33.5421 9.13698C33.5275 9.19018 33.4725 9.25756 33.3771 9.33911C33.2829 9.41754 33.17 9.50047 33.0382 9.58791C32.9076 9.67224 32.7793 9.75296 32.6533 9.83009C32.5283 9.90409 32.4273 9.96484 32.3501 10.0123C32.1632 10.127 31.9966 10.2521 31.8505 10.3875C31.7055 10.5197 31.6063 10.6665 31.5529 10.8279C31.5006 10.9861 31.519 11.1619 31.6082 11.3555C31.7299 11.62 31.9204 11.776 32.1794 11.8235C32.4396 11.8679 32.7221 11.822 33.0268 11.6857Z" fill="black"></path><path d="M38.0857 10.385L36.3499 5.21402L37.1467 4.95425L38.8825 10.1252L38.0857 10.385ZM36.4658 4.2201C36.3105 4.27074 36.1588 4.26166 36.0109 4.19286C35.8652 4.12334 35.7675 4.01451 35.7177 3.86638C35.668 3.71826 35.6806 3.57347 35.7555 3.43203C35.8326 3.28985 35.9488 3.19345 36.1041 3.14281C36.2595 3.09218 36.41 3.10162 36.5557 3.17115C36.7036 3.23994 36.8024 3.3484 36.8522 3.49653C36.9019 3.64466 36.8882 3.78981 36.811 3.93199C36.7362 4.07343 36.6211 4.16947 36.4658 4.2201Z" fill="black"></path><path d="M43.1816 3.43993L43.3338 4.13365L40.5692 4.7229L40.417 4.02918L43.1816 3.43993ZM40.9426 2.58099L41.7623 2.40629L42.8766 7.48433C42.9274 7.71557 42.999 7.88184 43.0915 7.98315C43.1858 8.08165 43.2906 8.13921 43.4057 8.15582C43.5227 8.16962 43.6413 8.16369 43.7617 8.13803C43.852 8.11878 43.9251 8.09836 43.981 8.07678C44.0363 8.05288 44.0806 8.03376 44.1138 8.01942L44.4419 8.71923C44.3909 8.75188 44.3179 8.78923 44.2229 8.83126C44.1284 8.8756 44.0047 8.91406 43.8519 8.94663C43.6204 8.99599 43.3826 8.99463 43.1385 8.94258C42.8967 8.89003 42.6805 8.77755 42.49 8.60515C42.3018 8.43226 42.1737 8.19088 42.1057 7.88102L40.9426 2.58099Z" fill="black"></path><path d="M47.8827 0.959732L48.6669 8.19005L47.8335 8.27786L47.0492 1.04754L47.8827 0.959732Z" fill="black"></path><path d="M52.8223 8V2.54545H53.6603V8H52.8223ZM53.2484 1.63636C53.085 1.63636 52.9442 1.58073 52.8258 1.46946C52.7098 1.35819 52.6518 1.22443 52.6518 1.06818C52.6518 0.911932 52.7098 0.778172 52.8258 0.666903C52.9442 0.555634 53.085 0.5 53.2484 0.5C53.4117 0.5 53.5514 0.555634 53.6674 0.666903C53.7858 0.778172 53.845 0.911932 53.845 1.06818C53.845 1.22443 53.7858 1.35819 53.6674 1.46946C53.5514 1.58073 53.4117 1.63636 53.2484 1.63636Z" fill="black"></path><path d="M60.4327 4.26619L59.661 4.39914C59.6275 4.26944 59.5712 4.14091 59.4921 4.01355C59.4157 3.88409 59.304 3.77234 59.157 3.6783C59.01 3.58426 58.8153 3.52447 58.5728 3.49892C58.2408 3.46395 57.9559 3.5113 57.718 3.64096C57.4827 3.76853 57.3524 3.94881 57.3271 4.18182C57.3047 4.38894 57.3623 4.56046 57.4999 4.69636C57.6376 4.83227 57.8622 4.95711 58.1737 5.07086L58.9574 5.3534C59.4297 5.52217 59.7716 5.7403 59.9831 6.00778C60.1948 6.2729 60.2801 6.59492 60.239 6.97386C60.2053 7.28453 60.0857 7.55284 59.8803 7.77876C59.6771 8.00493 59.409 8.17189 59.0758 8.27962C58.7427 8.38735 58.3654 8.41902 57.9439 8.37462C57.3906 8.31633 56.9457 8.14805 56.6092 7.86978C56.2727 7.59151 56.0811 7.21664 56.0347 6.74516L56.8472 6.6308C56.8909 6.93059 57.0096 7.16448 57.2033 7.33248C57.3993 7.50073 57.6681 7.60283 58.0094 7.6388C58.3979 7.67973 58.7153 7.62984 58.9615 7.48915C59.2104 7.34635 59.3475 7.15845 59.3727 6.92544C59.3932 6.73715 59.3443 6.57251 59.2263 6.43153C59.1085 6.28819 58.9165 6.17036 58.6502 6.07804L57.7691 5.77096C57.2851 5.60095 56.94 5.38009 56.7337 5.10841C56.53 4.83462 56.4485 4.51061 56.4891 4.13638C56.5223 3.83041 56.6376 3.5688 56.835 3.35154C57.0347 3.13454 57.2914 2.97471 57.6049 2.87205C57.9208 2.76964 58.2695 2.73853 58.6509 2.77871C59.1877 2.83527 59.5964 2.99735 59.8769 3.26495C60.1598 3.53281 60.3451 3.86656 60.4327 4.26619Z" fill="black"></path><path d="M65.3637 3.99203L65.2115 4.68575L62.4469 4.0965L62.5991 3.40278L65.3637 3.99203ZM63.685 2.29807L64.5046 2.47278L63.3903 7.55081C63.3395 7.78205 63.3351 7.96263 63.3768 8.09257C63.4214 8.22068 63.4927 8.31574 63.5905 8.37775C63.6913 8.43795 63.8018 8.48088 63.9222 8.50654C64.0125 8.52578 64.0876 8.53695 64.1475 8.54004C64.208 8.54082 64.2563 8.54144 64.2925 8.5419L64.2979 9.31278C64.2378 9.32175 64.1556 9.32602 64.0515 9.32562C63.9469 9.32752 63.8181 9.31218 63.6653 9.27961C63.4338 9.23026 63.2178 9.13218 63.0173 8.98537C62.8192 8.83905 62.6695 8.64861 62.5683 8.41402C62.4694 8.17993 62.4539 7.90796 62.5219 7.5981L63.685 2.29807Z" fill="black"></path><path d="M80.22 12.3126L79.8191 12.9832L77.0676 11.3853L77.4685 10.7148L80.22 12.3126Z" fill="black"></path><path d="M92.3541 20.0947L92.9105 20.7214L88.4785 24.5434C88.224 24.7629 87.9649 24.9097 87.7014 24.9837C87.4395 25.0596 87.1805 25.0548 86.9242 24.9694C86.6696 24.8858 86.4259 24.713 86.1933 24.451C86.1744 24.4298 86.1556 24.4085 86.1367 24.3873C86.1179 24.366 86.099 24.3448 86.0801 24.3235L86.6718 23.8133C86.6906 23.8346 86.7079 23.854 86.7237 23.8718C86.7394 23.8895 86.7567 23.9089 86.7755 23.9302C86.9453 24.1214 87.1268 24.2118 87.3202 24.2013C87.5117 24.1924 87.7123 24.0975 87.9221 23.9167L92.3541 20.0947ZM93.316 19.8091C93.2076 19.6869 93.1562 19.5453 93.1618 19.3841C93.1691 19.2247 93.2319 19.0939 93.3502 18.9919C93.4685 18.8899 93.6083 18.8459 93.7696 18.86C93.9325 18.8758 94.0681 18.9448 94.1766 19.067C94.285 19.1891 94.3356 19.3299 94.3284 19.4893C94.3227 19.6505 94.2607 19.7821 94.1424 19.8842C94.0241 19.9862 93.8835 20.0293 93.7206 20.0134C93.5593 19.9994 93.4245 19.9312 93.316 19.8091Z" fill="black"></path><path d="M91.3287 27.7107C91.0429 27.3097 90.8885 26.8911 90.8655 26.4551C90.8438 26.0209 90.9458 25.5991 91.1714 25.1896C91.3983 24.782 91.7434 24.4179 92.2067 24.0972C92.6739 23.7738 93.1414 23.5753 93.6094 23.5018C94.0787 23.4303 94.5169 23.4782 94.924 23.6455C95.3324 23.8148 95.6795 24.1 95.9653 24.501C96.2511 24.9019 96.4049 25.3195 96.4265 25.7537C96.4495 26.1897 96.3466 26.6122 96.1177 27.0212C95.8902 27.432 95.5429 27.7992 95.0757 28.1225C94.6124 28.4433 94.1471 28.6387 93.6797 28.7089C93.2137 28.781 92.7764 28.7325 92.368 28.5632C91.9609 28.3958 91.6145 28.1117 91.3287 27.7107ZM91.9477 27.2822C92.1648 27.5868 92.4223 27.7828 92.7201 27.8703C93.0179 27.9578 93.329 27.9599 93.6532 27.8765C93.9775 27.7931 94.2895 27.6476 94.5893 27.4401C94.889 27.2326 95.1347 26.992 95.3263 26.7183C95.5178 26.4446 95.6233 26.1542 95.6428 25.8471C95.6623 25.5399 95.5634 25.2341 95.3463 24.9295C95.1292 24.6248 94.8708 24.4295 94.571 24.3433C94.2713 24.2572 93.9583 24.2565 93.6321 24.3412C93.3059 24.426 92.9929 24.5721 92.6931 24.7796C92.3933 24.9871 92.1486 25.2271 91.959 25.4994C91.7694 25.7717 91.6658 26.0608 91.6483 26.3666C91.6308 26.6724 91.7306 26.9776 91.9477 27.2822Z" fill="black"></path><path d="M94.0016 31.684L98.7892 29.0704L99.1999 29.8009L94.4122 32.4145L94.0016 31.684ZM99.796 29.0062C99.7159 28.8638 99.6957 28.7144 99.7354 28.5579C99.7762 28.4034 99.8652 28.2888 100.002 28.2139C100.139 28.1391 100.285 28.1255 100.44 28.1733C100.595 28.2232 100.713 28.3193 100.793 28.4617C100.873 28.6041 100.893 28.7526 100.852 28.907C100.813 29.0635 100.724 29.1792 100.587 29.2541C100.45 29.3289 100.303 29.3414 100.148 29.2916C99.9933 29.2437 99.876 29.1486 99.796 29.0062Z" fill="black"></path><path d="M98.7797 33.7801L95.7501 35.0402L95.4202 34.2698L100.456 32.1751L100.775 32.9194L99.9883 33.2467L100.016 33.312C100.322 33.3231 100.604 33.4161 100.862 33.591C101.122 33.7649 101.333 34.0412 101.495 34.4199C101.64 34.7594 101.698 35.0855 101.667 35.3983C101.638 35.7102 101.513 35.9956 101.292 36.2543C101.072 36.5121 100.749 36.7301 100.32 36.9083L97.1201 38.2394L96.7901 37.469L99.9378 36.1598C100.333 35.9952 100.598 35.7647 100.731 35.4683C100.866 35.171 100.858 34.8439 100.705 34.487C100.6 34.2411 100.452 34.0436 100.262 33.8944C100.073 33.7475 99.8516 33.6612 99.5986 33.6357C99.3456 33.6102 99.0726 33.6583 98.7797 33.7801Z" fill="black"></path><path d="M104.772 45.9815L104.074 46.1113L103.542 43.3349L104.241 43.2052L104.772 45.9815ZM105.68 43.7756L105.838 44.5987L100.726 45.5486C100.494 45.5918 100.326 45.658 100.222 45.747C100.121 45.838 100.062 45.9406 100.042 46.0549C100.026 46.1711 100.029 46.2897 100.053 46.4106C100.07 46.5013 100.089 46.5748 100.109 46.6312C100.132 46.6872 100.15 46.732 100.164 46.7656L99.4558 47.0705C99.4242 47.0186 99.3883 46.9446 99.3482 46.8485C99.3058 46.7528 99.2699 46.6283 99.2406 46.4748C99.1961 46.2423 99.2025 46.0051 99.2599 45.7633C99.3177 45.5238 99.435 45.3118 99.6118 45.1272C99.7891 44.945 100.034 44.8249 100.346 44.7669L105.68 43.7756Z" fill="black"></path><path d="M102.988 48.9606L99.7165 49.2187L99.6487 48.3833L106.899 47.8114L106.967 48.6467L104.305 48.8567L104.31 48.9275C104.601 49.0328 104.84 49.2063 105.026 49.4482C105.214 49.6921 105.326 50.0277 105.361 50.4548C105.391 50.8252 105.343 51.1556 105.217 51.4457C105.093 51.7357 104.885 51.9694 104.593 52.1468C104.304 52.3264 103.925 52.4346 103.458 52.4714L100.003 52.744L99.935 51.9087L103.334 51.6406C103.765 51.6065 104.09 51.4681 104.308 51.2253C104.528 50.9847 104.623 50.6674 104.591 50.2733C104.568 49.9996 104.491 49.7587 104.357 49.5508C104.224 49.3452 104.042 49.1886 103.81 49.081C103.578 48.9758 103.304 48.9357 102.988 48.9606Z" fill="black"></path><path d="M99.8419 55.6327C99.8561 55.1073 99.9843 54.6571 100.227 54.2822C100.471 53.9097 100.806 53.626 101.23 53.4311C101.657 53.2386 102.149 53.1497 102.708 53.1644C103.266 53.1791 103.756 53.2937 104.176 53.5084C104.599 53.7256 104.925 54.0207 105.154 54.3938C105.386 54.7693 105.495 55.2032 105.481 55.6954C105.474 55.9794 105.419 56.2586 105.317 56.533C105.215 56.8074 105.054 57.0554 104.835 57.277C104.618 57.4987 104.334 57.6724 103.982 57.7982C103.631 57.9239 103.201 57.9801 102.692 57.9668L102.337 57.9574L102.45 53.7544L103.175 53.7734L103.084 57.1245C103.392 57.1326 103.668 57.0782 103.913 56.9615C104.157 56.8472 104.352 56.6794 104.498 56.4582C104.644 56.2394 104.721 55.9786 104.729 55.6757C104.738 55.342 104.663 55.0511 104.504 54.803C104.347 54.5573 104.139 54.3659 103.88 54.2289C103.621 54.0918 103.341 54.0194 103.04 54.0115L102.557 53.9988C102.146 53.988 101.795 54.0498 101.505 54.1843C101.217 54.3212 100.995 54.5155 100.839 54.7672C100.685 55.0189 100.604 55.314 100.594 55.6524C100.589 55.8725 100.614 56.0721 100.671 56.2512C100.73 56.4328 100.82 56.5902 100.942 56.7237C101.066 56.8572 101.222 56.962 101.41 57.0379L101.161 57.8413C100.888 57.7489 100.651 57.5994 100.448 57.3928C100.248 57.1862 100.093 56.9335 99.9854 56.6346C99.8797 56.3358 99.8319 56.0019 99.8419 55.6327Z" fill="black"></path><path d="M99.0648 63.5014L104.768 63.1651L104.556 64.0199L100.212 64.1867L100.198 64.2418L103.978 66.35L103.763 67.2185L99.4397 67.3611L99.426 67.4162L103.189 69.5348L102.977 70.3896L98.0736 67.4997L98.2718 66.7L102.633 66.5228L102.653 66.4401L98.8665 64.3011L99.0648 63.5014Z" fill="black"></path><path d="M97.2148 69.5094C97.3335 69.1848 97.5027 68.9121 97.7222 68.6911C97.9439 68.4709 98.2004 68.3246 98.4915 68.2523C98.7849 68.1807 99.0989 68.2043 99.4336 68.3233C99.728 68.4279 99.9456 68.5705 100.086 68.7512C100.229 68.9326 100.317 69.1386 100.352 69.3693C100.386 69.6 100.386 69.8412 100.351 70.0929C100.319 70.3476 100.275 70.5994 100.219 70.8484C100.145 71.1739 100.083 71.4369 100.032 71.6375C99.9828 71.8411 99.9675 71.9965 99.9863 72.1036C100.004 72.213 100.077 72.2903 100.204 72.3355L100.231 72.345C100.561 72.4623 100.85 72.4635 101.099 72.3484C101.347 72.2355 101.537 71.9979 101.67 71.6355C101.808 71.2598 101.833 70.9359 101.746 70.6638C101.659 70.3917 101.538 70.179 101.382 70.0257L101.923 69.3738C102.186 69.6182 102.364 69.8825 102.457 70.1666C102.551 70.4538 102.584 70.742 102.557 71.0311C102.53 71.3233 102.47 71.5983 102.376 71.8562C102.316 72.0207 102.226 72.2026 102.108 72.4017C101.991 72.6039 101.836 72.7836 101.642 72.9409C101.448 73.1004 101.205 73.2037 100.913 73.2506C100.621 73.2976 100.271 73.2486 99.8624 73.1035L96.4761 71.9L96.7641 71.113L97.4601 71.3603L97.4748 71.3203C97.3827 71.2273 97.2959 71.096 97.2144 70.9263C97.1328 70.7566 97.0852 70.5525 97.0716 70.314C97.058 70.0755 97.1058 69.8073 97.2148 69.5094ZM97.8802 69.8816C97.7663 70.1929 97.7317 70.477 97.7763 70.734C97.82 70.9933 97.919 71.2119 98.0732 71.3898C98.2266 71.5699 98.4104 71.6981 98.6246 71.7742L99.3473 72.031C99.3194 71.9834 99.3094 71.897 99.3174 71.7717C99.3269 71.6494 99.3462 71.5106 99.3753 71.3551C99.4059 71.2027 99.4375 71.0544 99.4701 70.9102C99.5041 70.769 99.531 70.6542 99.5507 70.5658C99.5988 70.3517 99.6253 70.145 99.6301 69.9458C99.6364 69.7495 99.6004 69.5759 99.522 69.425C99.445 69.277 99.3062 69.1674 99.1054 69.096C98.831 68.9985 98.5866 69.0259 98.372 69.1783C98.1588 69.3337 97.9949 69.5681 97.8802 69.8816Z" fill="black"></path><path d="M95.3039 74.3675L100.223 76.7248L99.8519 77.4764L94.9331 75.1191L95.3039 74.3675ZM100.854 77.4998C100.926 77.3534 101.039 77.2511 101.192 77.193C101.343 77.1371 101.489 77.1429 101.63 77.2104C101.771 77.2779 101.866 77.3877 101.915 77.5399C101.963 77.6941 101.951 77.8445 101.879 77.9909C101.806 78.1374 101.695 78.2387 101.543 78.2946C101.39 78.3527 101.243 78.3479 101.102 78.2804C100.962 78.2129 100.867 78.102 100.819 77.9478C100.77 77.7956 100.782 77.6463 100.854 77.4998Z" fill="black"></path><path d="M96.7409 82.7977L96.1364 82.425L97.6514 80.0386L98.256 80.4114L96.7409 82.7977ZM98.9267 81.7928L98.4775 82.5003L94.0523 79.7716C93.8508 79.6473 93.6813 79.5831 93.5438 79.5789C93.4069 79.578 93.2922 79.613 93.1996 79.6838C93.1077 79.7578 93.0288 79.8468 92.9628 79.9507C92.9133 80.0287 92.8767 80.0951 92.8531 80.1501C92.8314 80.2062 92.8141 80.2512 92.8011 80.2849L92.069 80.0337C92.0813 79.9745 92.1057 79.8964 92.1421 79.7992C92.1765 79.7009 92.2356 79.5857 92.3193 79.4538C92.4462 79.254 92.6139 79.0848 92.8224 78.9464C93.0295 78.8099 93.2618 78.7334 93.519 78.7169C93.7751 78.7023 94.0381 78.7783 94.3081 78.9448L98.9267 81.7928Z" fill="black"></path><path d="M95.2546 87.8282L89.5027 83.3776L90.0249 82.7221L95.7768 87.1727L95.2546 87.8282Z" fill="black"></path><path d="M86.7414 86.4381L90.677 90.2148L90.0879 90.8109L86.1524 87.0342L86.7414 86.4381ZM91.0334 91.1474C91.1482 91.0312 91.2873 90.9695 91.4508 90.9623C91.6126 90.9568 91.7499 91.0082 91.8626 91.1164C91.9754 91.2246 92.0311 91.3584 92.0299 91.518C92.027 91.6792 91.9681 91.818 91.8533 91.9342C91.7385 92.0504 91.6002 92.1112 91.4384 92.1167C91.2749 92.1239 91.1368 92.0733 91.024 91.9652C90.9113 91.857 90.8564 91.7222 90.8593 91.561C90.8605 91.4014 90.9186 91.2636 91.0334 91.1474Z" fill="black"></path><path d="M84.115 94.4045L84.5608 93.7651C84.6782 93.8311 84.8108 93.8802 84.9585 93.9124C85.1059 93.9479 85.2652 93.9461 85.4365 93.907C85.6078 93.8679 85.7879 93.7712 85.9767 93.617C86.2352 93.4057 86.4011 93.1709 86.4743 92.9123C86.5473 92.657 86.5083 92.4397 86.3574 92.2604C86.2233 92.101 86.0587 92.023 85.8637 92.0265C85.6686 92.0299 85.4205 92.1027 85.1194 92.2449L84.3644 92.605C83.9105 92.823 83.5125 92.9143 83.1704 92.879C82.8298 92.8455 82.5368 92.6829 82.2914 92.3912C82.0903 92.1521 81.9801 91.8814 81.9609 91.5791C81.9399 91.2784 82.0074 90.9726 82.1635 90.6616C82.3195 90.3507 82.5616 90.0612 82.8898 89.7931C83.3206 89.4411 83.7549 89.2421 84.1927 89.1962C84.6305 89.1503 85.0363 89.2742 85.4102 89.5679L84.9222 90.2234C84.6746 90.0466 84.4219 89.9688 84.1643 89.9898C83.9048 90.0123 83.6421 90.1321 83.3763 90.3493C83.0738 90.5965 82.887 90.8561 82.8158 91.1282C82.7444 91.4036 82.7841 91.631 82.935 91.8104C83.0569 91.9553 83.2103 92.0348 83.3953 92.0487C83.5818 92.0645 83.8019 92.0099 84.0557 91.8851L84.8969 91.4729C85.3599 91.2474 85.7622 91.1557 86.1037 91.1976C86.4449 91.2428 86.7367 91.4095 86.979 91.6975C87.1771 91.933 87.2855 92.196 87.304 92.4866C87.3208 92.7786 87.2562 93.0713 87.1102 93.3648C86.9624 93.6598 86.74 93.9286 86.443 94.1713C86.025 94.5128 85.6207 94.6904 85.23 94.704C84.8374 94.719 84.4657 94.6192 84.115 94.4045Z" fill="black"></path><path d="M80.8757 98.0698L80.4791 97.4806L82.845 95.9338L83.2416 96.523L80.8757 98.0698ZM83.2818 98.0579L82.5803 98.5165L79.6773 94.2036C79.5451 94.0073 79.4172 93.8787 79.2937 93.8181C79.1694 93.7607 79.0505 93.7452 78.9369 93.7714C78.8226 93.8008 78.7139 93.8492 78.6109 93.9166C78.5336 93.9671 78.4729 94.0125 78.4286 94.0528C78.3857 94.095 78.3513 94.1287 78.3256 94.1541L77.7625 93.6228C77.7982 93.574 77.8527 93.5129 77.926 93.4396C77.998 93.3642 78.0993 93.2838 78.2301 93.1983C78.4283 93.0687 78.6509 92.984 78.898 92.9441C79.1431 92.9055 79.3862 92.9318 79.6274 93.023C79.8665 93.1155 80.0747 93.2933 80.2518 93.5565L83.2818 98.0579Z" fill="black"></path><path d="M64.4734 102.757L64.265 102.004L67.3378 101.178L67.5461 101.931L64.4734 102.757Z" fill="black"></path><circle cx="53" cy="55" r="38" fill="#EFC8FD"></circle><path d="M66.4841 52.1774C66.4099 52.3951 66.3629 52.5337 66.3307 52.6227C66.2961 52.7044 66.2689 52.7761 66.2466 52.8355L66.1378 53.12C65.9621 53.59 65.6331 54.4609 65.2818 55.2995C64.8884 56.2396 64.4555 57.1525 63.9978 58.0159C63.5599 58.8373 63.0874 59.6314 62.5951 60.3786C62.2784 60.856 61.9494 61.3211 61.6055 61.7689L55.3291 53.4391C55.7249 53.1695 56.1084 52.8924 56.472 52.6104C57.0806 52.1378 57.662 51.6381 58.1939 51.126C58.8841 50.4605 59.4655 49.8049 60.0197 49.0676C60.5961 48.2983 61.0909 47.5091 61.4917 46.7223C61.9147 45.8861 62.2438 45.0277 62.4664 44.1667C62.6916 43.3033 62.8128 42.4276 62.8276 41.5666C62.84 40.7082 62.7509 39.8571 62.5555 39.0358C62.365 38.2293 62.0731 37.4475 61.6871 36.7127C61.316 36.0027 60.8559 35.3347 60.319 34.7237C59.8045 34.1373 59.2157 33.6054 58.5724 33.1403C57.9515 32.6926 57.2761 32.3066 56.5636 31.99C55.8684 31.6832 55.1361 31.4407 54.389 31.2775C53.6443 31.1117 52.8799 31.0202 52.1228 31.0028C51.3534 30.9855 50.584 31.0474 49.8369 31.1834C49.0675 31.3245 48.3154 31.5446 47.6054 31.839C46.8657 32.1458 46.1656 32.5342 45.5248 32.9944C44.8593 33.4719 44.2507 34.031 43.7213 34.6544C43.1745 35.2952 42.707 36.0126 42.3309 36.782C41.945 37.5737 41.6531 38.4321 41.4675 39.3351C41.2671 40.3049 41.1855 41.3267 41.2251 42.3682C41.2548 43.1697 41.3587 44.0356 41.5244 44.8718C41.6852 45.6783 41.9005 46.4403 42.1973 47.2691C42.4942 48.1003 42.8307 48.8747 43.2908 49.7826C43.4541 50.1018 43.6347 50.4481 43.8648 50.8538C42.8158 51.5169 42.138 52.024 41.5714 52.4743C40.7105 53.1596 40.0302 53.7805 39.3671 54.4831C38.7759 55.109 38.2341 55.7696 37.7566 56.44C37.2865 57.0981 36.8709 57.7859 36.5171 58.481C36.1708 59.1639 35.8764 59.8665 35.6488 60.5691C35.4212 61.2642 35.2505 61.9718 35.1416 62.6769C35.0278 63.4116 34.9833 64.1241 35.0056 64.8515C35.0253 65.5739 35.1144 66.3284 35.2604 67.031C35.4335 67.8474 35.6933 68.649 36.0322 69.4134C36.3514 70.1284 36.7447 70.8137 37.2 71.4495C37.6403 72.068 38.1475 72.6494 38.7041 73.1813C39.2855 73.7354 39.9015 74.2179 40.5893 74.6533C41.2696 75.0862 42.0415 75.487 42.8232 75.8086C43.7609 76.197 44.7628 76.4939 45.8019 76.6943C46.7816 76.8848 47.7959 76.9837 48.8201 76.9961H49.0131C49.9705 76.9961 50.9477 76.9194 51.9249 76.7685C52.9763 76.6027 54.0426 76.3479 55.0916 76.0115C56.1059 75.6824 57.1301 75.2718 58.137 74.7893C58.9732 74.3886 59.7377 73.9655 60.512 73.4707L64.1834 78.3444L70.5043 73.5796L66.5089 68.2779C66.7587 67.9934 67.0037 67.7015 67.2436 67.4071C67.9264 66.5684 68.5845 65.6728 69.1981 64.7451C69.8289 63.7901 70.4326 62.7758 70.9867 61.7318C71.5582 60.6581 72.0951 59.5275 72.5824 58.3648C72.9906 57.3876 73.3543 56.4252 73.5473 55.9081L73.619 55.7201C73.7155 55.49 73.8219 55.1857 74 54.6712L66.4841 52.1774ZM49.2209 40.9333C49.2753 40.676 49.3471 40.4533 49.446 40.2554C49.5301 40.0798 49.6316 39.9214 49.7503 39.7829C49.8641 39.6518 49.9952 39.5306 50.1412 39.4267C50.2896 39.3203 50.4579 39.2263 50.636 39.152C50.829 39.0729 51.0368 39.011 51.252 38.9739C51.4549 38.9368 51.6627 38.917 51.8754 38.917C51.9002 38.917 51.9274 38.917 51.9546 38.917C52.1946 38.922 52.4395 38.9517 52.677 39.0036C52.9145 39.0556 53.1421 39.1298 53.3573 39.2263C53.5676 39.3178 53.7606 39.4291 53.9362 39.5553C54.102 39.6765 54.2504 39.8101 54.3766 39.9511C54.4954 40.0872 54.5968 40.2332 54.676 40.3841C54.7526 40.5325 54.812 40.6933 54.8516 40.8566C54.8937 41.0372 54.9135 41.2302 54.911 41.4306C54.906 41.6656 54.8714 41.9179 54.8046 42.1752C54.723 42.4845 54.5993 42.8061 54.431 43.1351C54.243 43.5087 53.9857 43.9144 53.6864 44.3127C53.3895 44.7085 53.0852 45.05 52.6993 45.421C52.3727 45.7377 52.0115 46.0494 51.628 46.3463C51.3559 46.5566 51.0665 46.7644 50.7646 46.9673C50.5989 46.6753 50.4678 46.4304 50.354 46.2053C50.0447 45.5918 49.8344 45.1118 49.6489 44.5972C49.4831 44.1371 49.3743 43.7462 49.2902 43.3231C49.206 42.8976 49.1516 42.4523 49.1368 42.0688C49.1219 41.6606 49.1491 41.2796 49.2209 40.9308V40.9333ZM54.7131 67.652C54.0352 67.9761 53.3252 68.2606 52.6597 68.4758C52.0066 68.6861 51.3485 68.8444 50.7028 68.9459C50.0917 69.0399 49.4881 69.0869 48.9042 69.0795C48.3451 69.0745 47.8206 69.0225 47.2986 68.9211C46.7816 68.8222 46.2942 68.6787 45.8489 68.4931C45.4902 68.3447 45.1314 68.1616 44.837 67.9736C44.5872 67.8153 44.3744 67.6495 44.1691 67.4516C43.9712 67.2636 43.793 67.0607 43.6421 66.8479C43.4912 66.6377 43.3675 66.4224 43.2636 66.1874C43.1498 65.9351 43.0657 65.6728 43.0088 65.4056C42.9568 65.1582 42.9247 64.8812 42.9173 64.6263C42.9098 64.3789 42.9272 64.1439 42.9667 63.8842C43.0088 63.6021 43.0805 63.3151 43.1745 63.0257C43.276 62.709 43.412 62.3899 43.5729 62.0707C43.751 61.7219 43.9637 61.3706 44.2087 61.0267C44.4758 60.6507 44.7851 60.2771 45.129 59.9135C45.5273 59.4879 45.938 59.1168 46.502 58.6691C46.93 58.3277 47.4644 57.9318 48.3773 57.3702L55.7249 67.1201C55.4008 67.3056 55.0693 67.4788 54.7131 67.652Z" fill="#303133"></path></svg>