<svg xmlns="http://www.w3.org/2000/svg" width="165" height="40" viewBox="0 0 165 40" fill="none"><circle cx="19.5284" cy="19.5284" r="19.5284" fill="#282B2C"></circle><path d="M58.62 17.1808H53.7483V24.705C53.7483 26.2538 54.5804 27.0282 56.2448 27.0282C56.9498 27.0282 57.7416 26.8259 58.62 26.4214V30.721C57.6607 31.2411 56.5337 31.5012 55.2392 31.5012C53.2166 31.5012 51.6909 30.9637 50.6623 29.8888C49.6452 28.8024 49.1366 27.3229 49.1366 25.4505V17.1808H46.2587V12.9679H49.1366V8.37355H53.7483V12.9679H58.62V17.1808Z" fill="#282B2C"></path><path d="M72.5312 12.9679H77.1429V31.0677H72.5312V28.9006C70.9478 30.6343 68.9829 31.5012 66.6366 31.5012C64.117 31.5012 62.0134 30.5938 60.3259 28.7792C58.6385 26.9646 57.7947 24.7108 57.7947 22.0178C57.7947 19.3248 58.6385 17.071 60.3259 15.2564C62.0134 13.4417 64.117 12.5344 66.6366 12.5344C68.9945 12.5344 70.9593 13.3955 72.5312 15.1177V12.9679ZM67.5208 27.0282C68.954 27.0282 70.1445 26.5485 71.0922 25.5892C72.0515 24.6299 72.5312 23.4394 72.5312 22.0178C72.5312 20.5962 72.0515 19.4057 71.0922 18.4464C70.1445 17.4871 68.954 17.0074 67.5208 17.0074C66.0992 17.0074 64.9145 17.4871 63.9667 18.4464C63.019 19.4057 62.5451 20.5962 62.5451 22.0178C62.5451 23.4394 63.019 24.6299 63.9667 25.5892C64.9145 26.5485 66.0992 27.0282 67.5208 27.0282Z" fill="#282B2C"></path><path d="M89.2337 12.5344C91.3719 12.5344 93.0825 13.1759 94.3655 14.4589C95.66 15.7302 96.3072 17.4293 96.3072 19.5559V31.0677H91.6782V21.0469C91.6782 19.8218 91.3141 18.8451 90.586 18.117C89.8694 17.3773 88.9101 17.0074 87.708 17.0074C86.4482 17.0074 85.4253 17.3888 84.6394 18.1516C83.865 18.9029 83.4778 19.8969 83.4778 21.1336V31.0677H78.8662V12.9679H83.4778V14.979C84.9341 13.3493 86.8527 12.5344 89.2337 12.5344Z" fill="#282B2C"></path><path d="M111.484 5.49561H116.096V31.0677H111.484V28.9006C109.901 30.6343 107.936 31.5012 105.589 31.5012C103.07 31.5012 100.966 30.5938 99.2788 28.7792C97.5913 26.9646 96.7476 24.7108 96.7476 22.0178C96.7476 19.3248 97.5913 17.071 99.2788 15.2564C100.966 13.4417 103.07 12.5344 105.589 12.5344C107.947 12.5344 109.912 13.3955 111.484 15.1177V5.49561ZM106.474 27.0282C107.907 27.0282 109.097 26.5485 110.045 25.5892C111.004 24.6299 111.484 23.4394 111.484 22.0178C111.484 20.5962 111.004 19.4057 110.045 18.4464C109.097 17.4871 107.907 17.0074 106.474 17.0074C105.052 17.0074 103.867 17.4871 102.92 18.4464C101.972 19.4057 101.498 20.5962 101.498 22.0178C101.498 23.4394 101.972 24.6299 102.92 25.5892C103.867 26.5485 105.052 27.0282 106.474 27.0282Z" fill="#282B2C"></path><path d="M135.85 22.0525C135.85 22.6304 135.815 23.1736 135.745 23.6822H121.72C122.043 24.8264 122.662 25.7337 123.575 26.4041C124.488 27.0744 125.598 27.4096 126.904 27.4096C127.955 27.4096 128.92 27.2016 129.799 26.7855C130.677 26.3578 131.371 25.8204 131.879 25.1731L134.965 27.8777C134.006 29.022 132.816 29.9119 131.394 30.5476C129.984 31.1833 128.441 31.5012 126.765 31.5012C124.869 31.5012 123.153 31.0851 121.616 30.2529C120.079 29.4207 118.877 28.2765 118.01 26.8202C117.143 25.3523 116.709 23.7284 116.709 21.9484C116.709 20.1916 117.126 18.5966 117.958 17.1634C118.801 15.7187 119.957 14.586 121.425 13.7654C122.905 12.9448 124.54 12.5344 126.331 12.5344C129.048 12.5344 131.313 13.4417 133.128 15.2564C134.942 17.0594 135.85 19.3248 135.85 22.0525ZM129.227 17.5969C128.395 16.9149 127.418 16.574 126.297 16.574C125.176 16.574 124.199 16.9149 123.367 17.5969C122.535 18.2672 121.974 19.1687 121.685 20.3014H130.926C130.637 19.1687 130.071 18.2672 129.227 17.5969Z" fill="#282B2C"></path><path d="M158.239 12.5344C160.284 12.5344 161.92 13.147 163.145 14.3722C164.382 15.5973 165 17.2328 165 19.2785V31.0677H160.371V20.6655C160.371 19.5559 160.047 18.6718 159.4 18.0129C158.764 17.3426 157.909 17.0074 156.834 17.0074C155.702 17.0074 154.783 17.3484 154.078 18.0303C153.373 18.7122 153.02 19.6137 153.02 20.7349V31.0677H148.408V20.6655C148.408 19.5675 148.079 18.6833 147.42 18.0129C146.773 17.3426 145.906 17.0074 144.82 17.0074C143.699 17.0074 142.785 17.3541 142.08 18.0476C141.375 18.7295 141.023 19.6253 141.023 20.7349V31.0677H136.411V12.9679H141.023V14.8403C142.387 13.303 144.172 12.5344 146.38 12.5344C147.64 12.5344 148.755 12.7945 149.726 13.3146C150.709 13.8232 151.489 14.5455 152.067 15.4817C153.558 13.5169 155.615 12.5344 158.239 12.5344Z" fill="#282B2C"></path><path d="M26.4169 17.8215C26.3797 17.9317 26.3562 18.0019 26.3401 18.0469C26.3227 18.0883 26.3091 18.1246 26.298 18.1546L26.2434 18.2987C26.1555 18.5366 25.9907 18.9774 25.8148 19.402C25.6179 19.8779 25.4011 20.34 25.1719 20.7771C24.9526 21.1929 24.716 21.5949 24.4695 21.9731C24.3109 22.2148 24.1462 22.4503 23.974 22.6769L20.8312 18.4602C21.0294 18.3237 21.2214 18.1834 21.4035 18.0407C21.7083 17.8015 21.9994 17.5485 22.2657 17.2893C22.6113 16.9524 22.9025 16.6205 23.1799 16.2473C23.4686 15.8578 23.7163 15.4583 23.917 15.0601C24.1288 14.6368 24.2936 14.2022 24.4051 13.7664C24.5178 13.3293 24.5785 12.8859 24.586 12.4501C24.5922 12.0155 24.5476 11.5847 24.4497 11.1689C24.3543 10.7607 24.2081 10.3649 24.0149 9.99298C23.8291 9.63355 23.5986 9.29541 23.3298 8.98607C23.0722 8.68926 22.7773 8.42 22.4553 8.18456C22.1443 7.95788 21.8061 7.76251 21.4494 7.60221C21.1013 7.44692 20.7346 7.32418 20.3605 7.24153C19.9876 7.15762 19.6048 7.11128 19.2258 7.10252C18.8405 7.09375 18.4552 7.12506 18.0811 7.19394C17.6959 7.26532 17.3193 7.37678 16.9637 7.52582C16.5933 7.68111 16.2428 7.87773 15.9219 8.11067C15.5887 8.35238 15.284 8.63541 15.0189 8.95101C14.7451 9.27537 14.511 9.63856 14.3227 10.028C14.1294 10.4288 13.9832 10.8634 13.8903 11.3205C13.79 11.8114 13.7491 12.3286 13.7689 12.8559C13.7838 13.2617 13.8358 13.7 13.9188 14.1233C13.9993 14.5315 14.1071 14.9173 14.2558 15.3368C14.4044 15.7576 14.5729 16.1496 14.8033 16.6092C14.8851 16.7708 14.9755 16.9461 15.0907 17.1515C14.5655 17.4871 14.226 17.7439 13.9424 17.9718C13.5113 18.3187 13.1706 18.633 12.8386 18.9887C12.5425 19.3056 12.2712 19.64 12.0322 19.9793C11.7968 20.3125 11.5887 20.6606 11.4115 21.0125C11.2381 21.3582 11.0907 21.7139 10.9767 22.0695C10.8628 22.4215 10.7773 22.7796 10.7228 23.1366C10.6658 23.5085 10.6435 23.8692 10.6546 24.2374C10.6645 24.6031 10.7091 24.985 10.7822 25.3407C10.8689 25.754 10.999 26.1598 11.1687 26.5468C11.3285 26.9087 11.5255 27.2556 11.7534 27.5774C11.9739 27.8905 12.2279 28.1848 12.5066 28.4541C12.7977 28.7346 13.1062 28.9788 13.4506 29.1993C13.7912 29.4184 14.1777 29.6213 14.5692 29.7841C15.0387 29.9807 15.5404 30.131 16.0607 30.2325C16.5512 30.3289 17.0591 30.379 17.572 30.3853H17.6686C18.148 30.3853 18.6373 30.3464 19.1267 30.27C19.6531 30.1861 20.187 30.0571 20.7123 29.8868C21.2202 29.7202 21.733 29.5124 22.2372 29.2681C22.6559 29.0653 23.0387 28.8511 23.4265 28.6006L25.2648 31.0678L28.4299 28.6557L26.4293 25.9719C26.5544 25.8279 26.677 25.6801 26.7972 25.5311C27.1391 25.1065 27.4686 24.6532 27.7758 24.1835C28.0917 23.7001 28.394 23.1867 28.6715 22.6582C28.9576 22.1146 29.2264 21.5423 29.4705 20.9537C29.6749 20.459 29.857 19.9718 29.9536 19.7101L29.9895 19.6149C30.0378 19.4984 30.0911 19.3444 30.1803 19.0839L26.4169 17.8215ZM17.7727 12.1295C17.7999 11.9993 17.8358 11.8866 17.8854 11.7864C17.9275 11.6974 17.9783 11.6173 18.0378 11.5472C18.0947 11.4808 18.1604 11.4194 18.2335 11.3668C18.3078 11.313 18.3921 11.2654 18.4812 11.2278C18.5779 11.1877 18.6819 11.1564 18.7897 11.1376C18.8913 11.1189 18.9953 11.1088 19.1019 11.1088C19.1143 11.1088 19.1279 11.1088 19.1415 11.1088C19.2617 11.1113 19.3843 11.1264 19.5032 11.1527C19.6222 11.179 19.7361 11.2165 19.8439 11.2654C19.9492 11.3117 20.0458 11.3681 20.1338 11.4319C20.2168 11.4933 20.2911 11.5609 20.3543 11.6323C20.4137 11.7012 20.4645 11.7751 20.5042 11.8515C20.5426 11.9266 20.5723 12.008 20.5921 12.0907C20.6132 12.1821 20.6231 12.2798 20.6219 12.3812C20.6194 12.5002 20.602 12.628 20.5686 12.7582C20.5277 12.9147 20.4658 13.0776 20.3815 13.2441C20.2874 13.4332 20.1586 13.6386 20.0087 13.8402C19.86 14.0406 19.7076 14.2134 19.5144 14.4013C19.3509 14.5616 19.17 14.7194 18.978 14.8697C18.8417 14.9761 18.6968 15.0813 18.5457 15.184C18.4627 15.0363 18.397 14.9123 18.34 14.7983C18.1852 14.4877 18.0799 14.2448 17.987 13.9843C17.904 13.7513 17.8495 13.5535 17.8074 13.3393C17.7652 13.1239 17.738 12.8985 17.7305 12.7043C17.7231 12.4977 17.7367 12.3048 17.7727 12.1283V12.1295ZM20.5228 25.6551C20.1833 25.8191 19.8278 25.9631 19.4946 26.0721C19.1675 26.1786 18.838 26.2587 18.5147 26.3101C18.2087 26.3576 17.9065 26.3814 17.6141 26.3777C17.3341 26.3752 17.0715 26.3489 16.8101 26.2975C16.5512 26.2474 16.3072 26.1748 16.0842 26.0809C15.9046 26.0057 15.725 25.9131 15.5775 25.8179C15.4524 25.7377 15.3459 25.6538 15.2431 25.5536C15.144 25.4584 15.0548 25.3558 14.9792 25.248C14.9037 25.1416 14.8417 25.0326 14.7897 24.9137C14.7327 24.7859 14.6906 24.6532 14.6621 24.5179C14.6361 24.3927 14.62 24.2524 14.6163 24.1234C14.6125 23.9982 14.6212 23.8792 14.641 23.7477C14.6621 23.6049 14.698 23.4597 14.7451 23.3131C14.7959 23.1528 14.864 22.9913 14.9445 22.8297C15.0337 22.6531 15.1403 22.4753 15.2629 22.3012C15.3967 22.1109 15.5515 21.9218 15.7237 21.7377C15.9232 21.5223 16.1288 21.3344 16.4112 21.1077C16.6256 20.9349 16.8931 20.7345 17.3502 20.4502L21.0294 25.3858C20.8671 25.4797 20.7011 25.5674 20.5228 25.6551Z" fill="#EFC6FE"></path></svg>