<svg xmlns="http://www.w3.org/2000/svg" xmlns:xlink="http://www.w3.org/1999/xlink" width="426" zoomAndPan="magnify" viewBox="0 0 319.5 319.500004" height="426" preserveAspectRatio="xMidYMid meet" version="1.0"><defs><clipPath id="d1855d0325"><path d="M 0 0 L 318.96875 0 L 318.96875 318.96875 L 0 318.96875 Z M 0 0 " clip-rule="nonzero"/></clipPath><clipPath id="856dab7a28"><path d="M 159.484375 0 C 71.402344 0 0 71.402344 0 159.484375 C 0 247.566406 71.402344 318.96875 159.484375 318.96875 C 247.566406 318.96875 318.96875 247.566406 318.96875 159.484375 C 318.96875 71.402344 247.566406 0 159.484375 0 Z M 159.484375 0 " clip-rule="nonzero"/></clipPath><clipPath id="8c61ffcb85"><path d="M 117 102 L 202 102 L 202 186 L 117 186 Z M 117 102 " clip-rule="nonzero"/></clipPath><clipPath id="86b1dcb521"><path d="M 116.648438 103.765625 L 199.71875 101.164062 L 202.320312 184.234375 L 119.25 186.835938 Z M 116.648438 103.765625 " clip-rule="nonzero"/></clipPath><clipPath id="180c02b525"><path d="M 158.183594 102.464844 C 135.242188 103.183594 117.230469 122.359375 117.949219 145.300781 C 118.667969 168.238281 137.847656 186.253906 160.785156 185.535156 C 183.726562 184.816406 201.738281 165.636719 201.019531 142.699219 C 200.300781 119.757812 181.121094 101.746094 158.183594 102.464844 Z M 158.183594 102.464844 " clip-rule="nonzero"/></clipPath><clipPath id="4a0e5280cb"><path d="M 34 55 L 135 55 L 135 244 L 34 244 Z M 34 55 " clip-rule="nonzero"/></clipPath><clipPath id="597d9332f9"><path d="M 79.203125 52.066406 L 138.46875 68.273438 L 89.414062 247.6875 L 30.148438 231.484375 Z M 79.203125 52.066406 " clip-rule="nonzero"/></clipPath><clipPath id="9681ec66f4"><path d="M 95.816406 56.609375 L 121.855469 63.730469 C 131.03125 66.238281 136.433594 75.710938 133.925781 84.886719 L 94.015625 230.851562 C 91.507812 240.027344 82.035156 245.429688 72.859375 242.921875 L 46.820312 235.800781 C 37.644531 233.292969 32.242188 223.820312 34.75 214.648438 L 74.660156 68.679688 C 77.171875 59.503906 86.640625 54.101562 95.816406 56.609375 Z M 95.816406 56.609375 " clip-rule="nonzero"/></clipPath><clipPath id="a46373e2d7"><path d="M 184 55 L 286 55 L 286 244 L 184 244 Z M 184 55 " clip-rule="nonzero"/></clipPath><clipPath id="81d0407ba2"><path d="M 180.15625 68.003906 L 239.371094 51.617188 L 289.171875 231.574219 L 229.957031 247.960938 Z M 180.15625 68.003906 " clip-rule="nonzero"/></clipPath><clipPath id="f752c074bb"><path d="M 196.753906 63.410156 L 222.769531 56.210938 C 231.9375 53.675781 241.425781 59.050781 243.964844 68.214844 L 284.5625 214.925781 C 287.101562 224.09375 281.726562 233.582031 272.558594 236.121094 L 246.542969 243.320312 C 237.375 245.855469 227.886719 240.480469 225.351562 231.3125 L 184.75 84.605469 C 182.210938 75.4375 187.585938 65.949219 196.753906 63.410156 Z M 196.753906 63.410156 " clip-rule="nonzero"/></clipPath></defs><g clip-path="url(#d1855d0325)"><g clip-path="url(#856dab7a28)"><path fill="#245702" d="M 0 0 L 318.96875 0 L 318.96875 318.96875 L 0 318.96875 Z M 0 0 " fill-opacity="1" fill-rule="nonzero"/></g></g><g clip-path="url(#8c61ffcb85)"><g clip-path="url(#86b1dcb521)"><g clip-path="url(#180c02b525)"><path fill="#c1ff72" d="M 116.648438 103.765625 L 199.71875 101.164062 L 202.320312 184.234375 L 119.25 186.835938 Z M 116.648438 103.765625 " fill-opacity="1" fill-rule="nonzero"/></g></g></g><g clip-path="url(#4a0e5280cb)"><g clip-path="url(#597d9332f9)"><g clip-path="url(#9681ec66f4)"><path fill="#c1ff72" d="M 79.203125 52.066406 L 138.46875 68.273438 L 89.476562 247.457031 L 30.210938 231.25 Z M 79.203125 52.066406 " fill-opacity="1" fill-rule="nonzero"/></g></g></g><g clip-path="url(#a46373e2d7)"><g clip-path="url(#81d0407ba2)"><g clip-path="url(#f752c074bb)"><path fill="#c1ff72" d="M 180.15625 68.003906 L 239.371094 51.617188 L 289.171875 231.574219 L 229.957031 247.960938 Z M 180.15625 68.003906 " fill-opacity="1" fill-rule="nonzero"/></g></g></g></svg>